<svg xmlns="http://www.w3.org/2000/svg" xmlns:xlink="http://www.w3.org/1999/xlink" fill="none" version="1.1" width="25" height="23" viewBox="0 0 25 23"><defs><linearGradient x1="-0.12584161758422852" y1="0.5" x2="1.1620374917984009" y2="0.5" id="master_svg0_195_02528"><stop offset="2.142857201397419%" stop-color="#E47557" stop-opacity="1"/><stop offset="100%" stop-color="#C4A9E5" stop-opacity="1"/></linearGradient><linearGradient x1="-0.12584161758422852" y1="0.5" x2="1.1620374917984009" y2="0.5" id="master_svg1_195_02528"><stop offset="2.142857201397419%" stop-color="#E47557" stop-opacity="1"/><stop offset="100%" stop-color="#C4A9E5" stop-opacity="1"/></linearGradient></defs><g><g><rect x="1" y="1" width="23" height="21" rx="4" fill-opacity="0" stroke-opacity="1" stroke="#E27963" fill="none" stroke-width="2"/></g><g transform="matrix(-0.258819043636322,0.9659258127212524,-0.9659258127212524,-0.258819043636322,25.109630121471127,-6.373253771555028)"><path d="M15.155941,5.459255484375L26.096600000000002,7.1864894843750005Q26.1842,7.200308484375,26.267899999999997,7.229306484375Q26.351599999999998,7.2583044843749995,26.429000000000002,7.3015764843749995Q26.5063,7.344849484375,26.5748,7.401047484375Q26.6433,7.457241484375,26.7009,7.524621484375Q26.758499999999998,7.591991484375,26.8033,7.668441484375Q26.848100000000002,7.744881484375,26.8788,7.828021484375Q26.9095,7.911161484375,26.9251,7.998401484375Q26.9407,8.085631484375,26.9407,8.174251484375Q26.9407,8.272751484375,26.9215,8.369341484375Q26.9022,8.465941484375,26.8646,8.556941484374999Q26.826900000000002,8.647931484375,26.772100000000002,8.729821484375Q26.717399999999998,8.811721484375,26.6478,8.881361484375Q26.5781,8.951001484375,26.4962,9.005721484375Q26.4143,9.060441484375,26.3234,9.098131484375Q26.2324,9.135821484375,26.1358,9.155041484375Q26.0392,9.174251484375,25.9407,9.174251484375Q25.8622,9.174251484375,25.7847,9.162021484375L25.7843,9.161951484374999L14.844059,7.434787484375Q14.756523,7.420968484375,14.672783,7.391970484375Q14.589042,7.362972484375,14.511705,7.319700484375Q14.434369,7.276427484375,14.365848,7.220229484375Q14.297327,7.164031484375,14.239756,7.096659484375Q14.182186,7.029286484375,14.13736,6.952840484375Q14.092535,6.876393484375,14.061852,6.793255484375Q14.031169,6.710117484375,14.015584,6.622879484375Q14,6.535640884375,14,6.447021484375Q14,6.348530084375,14.019214999999999,6.251931484375Q14.03843,6.155332484375,14.076121,6.064338484375Q14.113812,5.973343484375,14.16853,5.891451484375Q14.223249,5.809558484375,14.292893,5.739914484375Q14.362537,5.670270484375,14.44443,5.615551484375Q14.526322,5.560833484375,14.617317,5.523142484375Q14.708311,5.485451484375,14.80491,5.466236484375Q14.9015086,5.447021484375,15,5.447021484375Q15.0784505,5.447021484375,15.155941,5.459255484375Z" fill-rule="evenodd" fill="#BFB1FA" fill-opacity="1"/></g><g><path d="M8.70711,9.707107Q8.847760000000001,9.566454,8.92388,9.382683Q9,9.198912,9,9Q9,8.9015086,8.98078,8.80491Q8.96157,8.708311,8.92388,8.617317Q8.88619,8.526322,8.83147,8.44443Q8.77675,8.362537,8.70711,8.292893Q8.63746,8.223249,8.55557,8.16853Q8.47368,8.113812,8.38268,8.076121Q8.29169,8.03843,8.19509,8.019214999999999Q8.09849,8,8,8Q7.80109,8,7.617319999999999,8.07612Q7.43355,8.152241,7.29289,8.292893L4.292893,11.29289Q4.223249,11.36254,4.16853,11.44443Q4.113812,11.52632,4.076121,11.61732Q4.03843,11.70831,4.019215,11.80491Q4,11.90151,4,12Q4,12.09849,4.019215,12.19509Q4.03843,12.29169,4.076121,12.38268Q4.113812,12.47368,4.16853,12.55557Q4.223249,12.63746,4.292893,12.70711L7.29258,15.70679L7.29289,15.70711Q7.43355,15.847760000000001,7.617319999999999,15.92388Q7.80109,16,8,16Q8.09849,16,8.19509,15.98078Q8.29169,15.96157,8.38268,15.92388Q8.47368,15.88619,8.55557,15.83147Q8.63746,15.77675,8.70711,15.70711Q8.77675,15.63746,8.83147,15.55557Q8.88619,15.47368,8.92388,15.38268Q8.96157,15.29169,8.98078,15.19509Q9,15.09849,9,15Q9,14.80109,8.92388,14.61732Q8.847760000000001,14.43355,8.70711,14.29289L8.70679,14.292580000000001L6.41421,12L8.70711,9.707107Z" fill-rule="evenodd" fill="url(#master_svg0_195_02528)" fill-opacity="1"/></g><g transform="matrix(-1,0,0,1,40,0)"><path d="M23.70711,9.707107Q23.84776,9.566454,23.92388,9.382683Q24,9.198912,24,9Q24,8.9015086,23.98078,8.80491Q23.961570000000002,8.708311,23.92388,8.617317Q23.88619,8.526322,23.83147,8.44443Q23.77675,8.362537,23.70711,8.292893Q23.63746,8.223249,23.55557,8.16853Q23.47368,8.113812,23.38268,8.076121Q23.29169,8.03843,23.19509,8.019214999999999Q23.098489999999998,8,23,8Q22.80109,8,22.61732,8.07612Q22.43355,8.152241,22.29289,8.292893L19.292893,11.29289Q19.223249,11.36254,19.16853,11.44443Q19.113812,11.52632,19.076121,11.61732Q19.038429999999998,11.70831,19.019215,11.80491Q19,11.90151,19,12Q19,12.09849,19.019215,12.19509Q19.038429999999998,12.29169,19.076121,12.38268Q19.113812,12.47368,19.16853,12.55557Q19.223249,12.63746,19.292893,12.70711L22.29258,15.70679L22.29289,15.70711Q22.43355,15.847760000000001,22.61732,15.92388Q22.80109,16,23,16Q23.098489999999998,16,23.19509,15.98078Q23.29169,15.96157,23.38268,15.92388Q23.47368,15.88619,23.55557,15.83147Q23.63746,15.77675,23.70711,15.70711Q23.77675,15.63746,23.83147,15.55557Q23.88619,15.47368,23.92388,15.38268Q23.961570000000002,15.29169,23.98078,15.19509Q24,15.09849,24,15Q24,14.80109,23.92388,14.61732Q23.84776,14.43355,23.70711,14.29289L23.706789999999998,14.292580000000001L21.41421,12L23.70711,9.707107Z" fill-rule="evenodd" fill="url(#master_svg1_195_02528)" fill-opacity="1"/></g></g></svg>