<svg xmlns="http://www.w3.org/2000/svg" xmlns:xlink="http://www.w3.org/1999/xlink" fill="none" version="1.1" width="25" height="25" viewBox="0 0 25 25"><g><g><path d="M24.7464,10.98351L24.7461,10.9819Q24.7289,10.89787,24.6976,10.818Q24.6664,10.73813,24.622,10.66474Q24.5776,10.59136,24.5213,10.52661Q24.4651,10.46185,24.3986,10.40762Q24.3322,10.35339,24.2575,10.31127Q24.1827,10.26915,24.102,10.24037Q24.0212,10.21158,23.9366,10.19698Q23.8521,10.18237,23.7664,10.18237Q23.6679,10.18237,23.5713,10.20159Q23.4747,10.2208,23.3837,10.25849Q23.2927,10.29618,23.2108,10.3509Q23.1289,10.40562,23.0592,10.47527Q22.9896,10.54491,22.9349,10.6268Q22.8802,10.70869,22.8425,10.79969Q22.8048,10.89068,22.7856,10.98728Q22.7664,11.08388,22.7664,11.18237Q22.7664,11.28364,22.7867,11.38285Q23,12.4254,23,13.5Q23,17.716,19.9712,20.381Q16.9945,23,12.5,23L2.40069,23Q3.3792,21.7066,3.7597,20.8142Q4.11822,19.9733,3.65989,19.1302Q2,16.076999999999998,2,13.5Q2,9.15076,5.07538,6.07538Q8.15076,3,12.5,3Q12.5985,3,12.6951,2.980785Q12.7917,2.96157,12.8827,2.923879Q12.9737,2.8861879999999998,13.0556,2.83147Q13.1375,2.776751,13.2071,2.707107Q13.2767,2.637463,13.3315,2.55557Q13.3862,2.473678,13.4239,2.382683Q13.4616,2.291689,13.4808,2.19509Q13.5,2.0984914,13.5,2Q13.5,1.9015086,13.4808,1.80491Q13.4616,1.7083110000000001,13.4239,1.617317Q13.3862,1.526322,13.3315,1.44443Q13.2767,1.362537,13.2071,1.2928929999999998Q13.1375,1.223249,13.0556,1.16853Q12.9737,1.113812,12.8827,1.076121Q12.7917,1.03843,12.6951,1.019215Q12.5985,1,12.5,1Q7.32233,1,3.66117,4.66117Q0,8.322330000000001,0,13.5Q0,16.5823,1.89882,20.0782Q1.58318,20.787,0.6839919999999999,21.9526Q0.638479,22.0116,0.61634,22.0404Q-0.11301499999999998,22.987,0.4216376,24.0095Q0.9395370000000001,25,2.10492,25L12.5,25Q17.7492,25,21.2923,21.8825Q25,18.6202,25,13.5Q25,12.2237,24.7464,10.98351Z" fill-rule="evenodd" fill="#E8EDF7" fill-opacity="1"/></g><g><path d="M8,15L16.5,15Q16.598489999999998,15,16.69509,15.019214999999999Q16.79169,15.03843,16.88268,15.076121Q16.97368,15.113812,17.05557,15.16853Q17.13746,15.223249,17.20711,15.292893Q17.27675,15.362537,17.33147,15.44443Q17.38619,15.526322,17.42388,15.617317Q17.461570000000002,15.708311,17.48078,15.80491Q17.5,15.9015086,17.5,16Q17.5,16.0984914,17.48078,16.19509Q17.461570000000002,16.291689,17.42388,16.382683Q17.38619,16.473678,17.33147,16.55557Q17.27675,16.637463,17.20711,16.707107Q17.13746,16.776751,17.05557,16.83147Q16.97368,16.886188,16.88268,16.923879Q16.79169,16.961570000000002,16.69509,16.980785Q16.598489999999998,17,16.5,17L8,17Q7.9015086,17,7.80491,16.980785Q7.708311,16.961570000000002,7.617317,16.923879Q7.526322,16.886188,7.44443,16.83147Q7.362537,16.776751,7.292893,16.707107Q7.223249,16.637463,7.16853,16.55557Q7.113812,16.473678,7.076121,16.382683Q7.03843,16.291689,7.019215,16.19509Q7,16.0984914,7,16Q7,15.9015086,7.019215,15.80491Q7.03843,15.708311,7.076121,15.617317Q7.113812,15.526322,7.16853,15.44443Q7.223249,15.362537,7.292893,15.292893Q7.362537,15.223249,7.44443,15.16853Q7.526322,15.113812,7.617317,15.076121Q7.708311,15.03843,7.80491,15.019214999999999Q7.9015086,15,8,15Z" fill-rule="evenodd" fill="#E8EDF7" fill-opacity="1"/></g><g><path d="M16,4L24,4Q24.098489999999998,4,24.19509,4.019215Q24.29169,4.03843,24.38268,4.076121Q24.47368,4.113812,24.55557,4.16853Q24.63746,4.223249,24.70711,4.292893Q24.77675,4.362537,24.83147,4.44443Q24.88619,4.526322,24.92388,4.617317Q24.961570000000002,4.708311,24.98078,4.80491Q25,4.9015086,25,5Q25,5.0984914,24.98078,5.19509Q24.961570000000002,5.291689,24.92388,5.382683Q24.88619,5.473678,24.83147,5.55557Q24.77675,5.637463,24.70711,5.707107Q24.63746,5.776751,24.55557,5.83147Q24.47368,5.886188,24.38268,5.923879Q24.29169,5.96157,24.19509,5.980785Q24.098489999999998,6,24,6L16,6Q15.9015086,6,15.80491,5.980785Q15.708311,5.96157,15.617317,5.923879Q15.526322,5.886188,15.44443,5.83147Q15.362537,5.776751,15.292893,5.707107Q15.223249,5.637463,15.16853,5.55557Q15.113812,5.473678,15.076121,5.382683Q15.03843,5.291689,15.019214999999999,5.19509Q15,5.0984914,15,5Q15,4.9015086,15.019214999999999,4.80491Q15.03843,4.708311,15.076121,4.617317Q15.113812,4.526322,15.16853,4.44443Q15.223249,4.362537,15.292893,4.292893Q15.362537,4.223249,15.44443,4.16853Q15.526322,4.113812,15.617317,4.076121Q15.708311,4.03843,15.80491,4.019215Q15.9015086,4,16,4Z" fill-rule="evenodd" fill="#E8EDF7" fill-opacity="1"/></g><g transform="matrix(0,-1,1,0,11,29)"><path d="M20,8L28,8Q28.098489999999998,8,28.19509,8.019214999999999Q28.29169,8.03843,28.38268,8.076121Q28.47368,8.113812,28.55557,8.16853Q28.63746,8.223249,28.70711,8.292893Q28.77675,8.362537,28.83147,8.44443Q28.88619,8.526322,28.92388,8.617317Q28.961570000000002,8.708311,28.98078,8.80491Q29,8.9015086,29,9Q29,9.0984914,28.98078,9.19509Q28.961570000000002,9.291689,28.92388,9.382683Q28.88619,9.473678,28.83147,9.55557Q28.77675,9.637463,28.70711,9.707107Q28.63746,9.776751,28.55557,9.83147Q28.47368,9.886188,28.38268,9.923879Q28.29169,9.96157,28.19509,9.980785000000001Q28.098489999999998,10,28,10L20,10Q19.9015086,10,19.80491,9.980785000000001Q19.708311,9.96157,19.617317,9.923879Q19.526322,9.886188,19.44443,9.83147Q19.362537,9.776751,19.292893,9.707107Q19.223249,9.637463,19.16853,9.55557Q19.113812,9.473678,19.076121,9.382683Q19.038429999999998,9.291689,19.019215,9.19509Q19,9.0984914,19,9Q19,8.9015086,19.019215,8.80491Q19.038429999999998,8.708311,19.076121,8.617317Q19.113812,8.526322,19.16853,8.44443Q19.223249,8.362537,19.292893,8.292893Q19.362537,8.223249,19.44443,8.16853Q19.526322,8.113812,19.617317,8.076121Q19.708311,8.03843,19.80491,8.019214999999999Q19.9015086,8,20,8Z" fill-rule="evenodd" fill="#E8EDF7" fill-opacity="1"/></g><g><path d="M8,10L12.5,10Q12.59849,10,12.69509,10.019214999999999Q12.79169,10.03843,12.88268,10.076121Q12.97368,10.113812,13.05557,10.16853Q13.13746,10.223249,13.20711,10.292893Q13.27675,10.362537,13.33147,10.44443Q13.38619,10.526322,13.42388,10.617317Q13.46157,10.708311,13.48078,10.80491Q13.5,10.9015086,13.5,11Q13.5,11.0984914,13.48078,11.19509Q13.46157,11.291689,13.42388,11.382683Q13.38619,11.473678,13.33147,11.55557Q13.27675,11.637463,13.20711,11.707107Q13.13746,11.776751,13.05557,11.83147Q12.97368,11.886188,12.88268,11.923879Q12.79169,11.96157,12.69509,11.980785000000001Q12.59849,12,12.5,12L8,12Q7.9015086,12,7.80491,11.980785000000001Q7.708311,11.96157,7.617317,11.923879Q7.526322,11.886188,7.44443,11.83147Q7.362537,11.776751,7.292893,11.707107Q7.223249,11.637463,7.16853,11.55557Q7.113812,11.473678,7.076121,11.382683Q7.03843,11.291689,7.019215,11.19509Q7,11.0984914,7,11Q7,10.9015086,7.019215,10.80491Q7.03843,10.708311,7.076121,10.617317Q7.113812,10.526322,7.16853,10.44443Q7.223249,10.362537,7.292893,10.292893Q7.362537,10.223249,7.44443,10.16853Q7.526322,10.113812,7.617317,10.076121Q7.708311,10.03843,7.80491,10.019214999999999Q7.9015086,10,8,10Z" fill-rule="evenodd" fill="#E8EDF7" fill-opacity="1"/></g></g></svg>