<svg xmlns="http://www.w3.org/2000/svg" xmlns:xlink="http://www.w3.org/1999/xlink" fill="none" version="1.1" width="32" height="32" viewBox="0 0 32 32"><defs><clipPath id="master_svg0_75_5466"><rect x="0" y="0" width="32" height="32" rx="0"/></clipPath></defs><g clip-path="url(#master_svg0_75_5466)"><g><g><path d="M4,24L4,8Q4,7.80349,4.0192611,7.60793Q4.0385222,7.41237,4.0768589,7.21964Q4.115196,7.02691,4.172239,6.83886Q4.229282,6.6508199999999995,4.304482,6.46927Q4.379682,6.28772,4.472315,6.1144099999999995Q4.564948,5.94111,4.6741209999999995,5.77772Q4.783295,5.61433,4.907958,5.4624299999999995Q5.03262,5.31052,5.17157,5.17157Q5.31052,5.03262,5.4624299999999995,4.907958Q5.61433,4.783295,5.77772,4.6741209999999995Q5.94111,4.564948,6.1144099999999995,4.472315Q6.28772,4.379682,6.46927,4.304482Q6.6508199999999995,4.229282,6.83886,4.172239Q7.02691,4.115196,7.21964,4.0768589Q7.41237,4.0385222,7.60793,4.0192611Q7.80349,4,8,4L22,4Q22.1965,4,22.3921,4.0192611Q22.5876,4.0385222,22.7804,4.0768589Q22.9731,4.115196,23.1611,4.172239Q23.3492,4.229282,23.5307,4.304482Q23.7123,4.379682,23.8856,4.472315Q24.0589,4.564948,24.2223,4.6741209999999995Q24.3857,4.783295,24.5376,4.907958Q24.6895,5.03262,24.8284,5.17157Q24.9674,5.31052,25.092,5.4624299999999995Q25.2167,5.61433,25.3259,5.77772Q25.4351,5.94111,25.5277,6.1144099999999995Q25.6203,6.28772,25.6955,6.46927Q25.7707,6.6508199999999995,25.8278,6.83886Q25.8848,7.02691,25.9231,7.21964Q25.9615,7.41237,25.9807,7.60793Q26,7.80349,26,8L26,16.6754Q25.0455,16.2227,24,16.0718L24,8Q24,6,22,6L8,6Q6,6,6,8L6,24Q6,26,8,26L16.6754,26Q17.21,27.127,18.101,28L8,28Q7.80349,28,7.60793,27.9807Q7.41237,27.9615,7.21964,27.9231Q7.02691,27.8848,6.83886,27.8278Q6.6508199999999995,27.7707,6.46927,27.6955Q6.28772,27.6203,6.1144099999999995,27.5277Q5.94111,27.435,5.77772,27.3259Q5.61433,27.2167,5.4624299999999995,27.092Q5.31052,26.9674,5.17157,26.8284Q5.03262,26.6895,4.907958,26.5376Q4.783295,26.3857,4.6741209999999995,26.2223Q4.564948,26.0589,4.472315,25.8856Q4.379682,25.7123,4.304482,25.5307Q4.229282,25.3492,4.172239,25.1611Q4.115196,24.9731,4.0768589,24.7804Q4.0385222,24.5876,4.0192611,24.3921Q4,24.1965,4,24Z" fill-rule="evenodd" fill="#E8EDF7" fill-opacity="1"/></g><g><ellipse cx="23" cy="23" rx="6" ry="6" fill-opacity="0" stroke-opacity="1" stroke="#E8EDF7" fill="none" stroke-width="2"/></g><g><path d="M8.5,11L17,11Q17.098489999999998,11,17.19509,11.019214999999999Q17.29169,11.03843,17.38268,11.076121Q17.47368,11.113812,17.55557,11.16853Q17.63746,11.223249,17.70711,11.292893Q17.77675,11.362537,17.83147,11.44443Q17.88619,11.526322,17.92388,11.617317Q17.961570000000002,11.708311,17.98078,11.80491Q18,11.9015086,18,12Q18,12.0984914,17.98078,12.19509Q17.961570000000002,12.291689,17.92388,12.382683Q17.88619,12.473678,17.83147,12.55557Q17.77675,12.637463,17.70711,12.707107Q17.63746,12.776751,17.55557,12.83147Q17.47368,12.886188,17.38268,12.923879Q17.29169,12.96157,17.19509,12.980785000000001Q17.098489999999998,13,17,13L8.5,13Q8.4015086,13,8.30491,12.980785000000001Q8.208311,12.96157,8.117317,12.923879Q8.026322,12.886188,7.94443,12.83147Q7.862537,12.776751,7.792893,12.707107Q7.723249,12.637463,7.66853,12.55557Q7.613812,12.473678,7.576121,12.382683Q7.53843,12.291689,7.519215,12.19509Q7.5,12.0984914,7.5,12Q7.5,11.9015086,7.519215,11.80491Q7.53843,11.708311,7.576121,11.617317Q7.613812,11.526322,7.66853,11.44443Q7.723249,11.362537,7.792893,11.292893Q7.862537,11.223249,7.94443,11.16853Q8.026322,11.113812,8.117317,11.076121Q8.208311,11.03843,8.30491,11.019214999999999Q8.4015086,11,8.5,11Z" fill-rule="evenodd" fill="#E8EDF7" fill-opacity="1"/></g><g><path d="M8.5,16L15,16Q15.09849,16,15.19509,16.019215Q15.29169,16.038429999999998,15.38268,16.076121Q15.47368,16.113812,15.55557,16.16853Q15.63746,16.223249,15.70711,16.292893Q15.77675,16.362537,15.83147,16.44443Q15.88619,16.526322,15.92388,16.617317Q15.96157,16.708311,15.98078,16.80491Q16,16.9015086,16,17Q16,17.0984914,15.98078,17.19509Q15.96157,17.291689,15.92388,17.382683Q15.88619,17.473678,15.83147,17.55557Q15.77675,17.637463,15.70711,17.707107Q15.63746,17.776751,15.55557,17.83147Q15.47368,17.886188,15.38268,17.923879Q15.29169,17.961570000000002,15.19509,17.980785Q15.09849,18,15,18L8.5,18Q8.4015086,18,8.30491,17.980785Q8.208311,17.961570000000002,8.117317,17.923879Q8.026322,17.886188,7.94443,17.83147Q7.862537,17.776751,7.792893,17.707107Q7.723249,17.637463,7.66853,17.55557Q7.613812,17.473678,7.576121,17.382683Q7.53843,17.291689,7.519215,17.19509Q7.5,17.0984914,7.5,17Q7.5,16.9015086,7.519215,16.80491Q7.53843,16.708311,7.576121,16.617317Q7.613812,16.526322,7.66853,16.44443Q7.723249,16.362537,7.792893,16.292893Q7.862537,16.223249,7.94443,16.16853Q8.026322,16.113812,8.117317,16.076121Q8.208311,16.038429999999998,8.30491,16.019215Q8.4015086,16,8.5,16Z" fill-rule="evenodd" fill="#E8EDF7" fill-opacity="1"/></g><g><path d="M22,20Q22,19.9015086,22.019215,19.80491Q22.038429999999998,19.708311,22.076121,19.617317Q22.113812,19.526322,22.16853,19.44443Q22.223249,19.362537,22.292893,19.292893Q22.362537,19.223249,22.44443,19.16853Q22.526322,19.113812,22.617317,19.076121Q22.708311,19.038429999999998,22.80491,19.019215Q22.9015086,19,23,19Q23.0984914,19,23.19509,19.019215Q23.291689,19.038429999999998,23.382683,19.076121Q23.473678,19.113812,23.55557,19.16853Q23.637463,19.223249,23.707107,19.292893Q23.776751,19.362537,23.83147,19.44443Q23.886188,19.526322,23.923879,19.617317Q23.961570000000002,19.708311,23.980785,19.80491Q24,19.9015086,24,20L24,22L26,22Q26.098489999999998,22,26.19509,22.01921Q26.29169,22.038429999999998,26.38268,22.07612Q26.47368,22.11381,26.55557,22.16853Q26.63746,22.22325,26.70711,22.29289Q26.77675,22.36254,26.83147,22.44443Q26.88619,22.52632,26.92388,22.61732Q26.961570000000002,22.70831,26.98078,22.80491Q27,22.901510000000002,27,23Q27,23.098489999999998,26.98078,23.19509Q26.961570000000002,23.29169,26.92388,23.38268Q26.88619,23.47368,26.83147,23.55557Q26.77675,23.63746,26.70711,23.70711Q26.63746,23.77675,26.55557,23.83147Q26.47368,23.88619,26.38268,23.92388Q26.29169,23.961570000000002,26.19509,23.98078Q26.098489999999998,24,26,24L23,24Q22.9015086,24,22.80491,23.98078Q22.708311,23.961570000000002,22.617317,23.92388Q22.526322,23.88619,22.44443,23.83147Q22.362537,23.77675,22.292893,23.70711Q22.223249,23.63746,22.16853,23.55557Q22.113812,23.47368,22.076121,23.38268Q22.038429999999998,23.29169,22.019215,23.19509Q22,23.098489999999998,22,23L22,20Z" fill-rule="evenodd" fill="#E8EDF7" fill-opacity="1"/></g></g></g></svg>