<svg xmlns="http://www.w3.org/2000/svg" xmlns:xlink="http://www.w3.org/1999/xlink" fill="none" version="1.1" width="20.982023239135742" height="17.485055923461914" viewBox="0 0 20.982023239135742 17.485055923461914"><defs><linearGradient x1="0.5" y1="0" x2="0.5" y2="1" id="master_svg0_75_3222"><stop offset="0%" stop-color="#D75720" stop-opacity="1"/><stop offset="100%" stop-color="#BDB0F2" stop-opacity="1"/></linearGradient></defs><g><path d="M19.9484,0.0898518C19.9484,0.0898518,0.79289,7.48156,0.79289,7.48156C-0.286607,7.89812,-0.259564,8.50348,0.847932,8.83211C0.847932,8.83211,0.848395,8.83225,0.849312,8.83252C3.75086,9.69345,6.05651,11.9318,7.02068,14.8007C7.22097,15.3967,7.35816,15.8049,7.35816,15.8049C7.60453,16.538,8.24815,16.6925,8.79868,16.1472C8.79868,16.1472,8.79893,16.147,8.79941,16.1465C10.1978,14.7612,12.3931,14.5971,13.9808,15.7607C15.0483,16.543,16.0188,17.2541,16.0188,17.2541C16.6415,17.7104,17.2816,17.4703,17.4496,16.7129C17.4496,16.7129,20.9468,0.954833,20.9468,0.954833C21.1144,0.199672,20.668,-0.187825,19.9484,0.0898518ZM17.0333,3.6527C17.0333,3.6527,8.86261,10.9327,8.86261,10.9327C8.71569,11.0636,8.58274,11.323,8.56233,11.515C8.56233,11.515,8.20161,14.9063,8.20161,14.9063C8.1611,15.2871,8.0298,15.3028,7.9087,14.9378C7.9087,14.9378,6.32767,10.1721,6.32767,10.1721C6.26582,9.98566,6.35054,9.75714,6.5157,9.65809C6.5157,9.65809,16.8778,3.44291,16.8778,3.44291C17.5381,3.04685,17.6084,3.14039,17.0333,3.6527Z" fill="url(#master_svg0_75_3222)" fill-opacity="1"/></g></svg>