<svg xmlns="http://www.w3.org/2000/svg" xmlns:xlink="http://www.w3.org/1999/xlink" fill="none" version="1.1" width="18" height="18" viewBox="0 0 18 18"><defs><clipPath id="master_svg0_211_19413"><rect x="0" y="0" width="18" height="18" rx="0"/></clipPath></defs><g clip-path="url(#master_svg0_211_19413)"><g transform="matrix(0.7071067690849304,-0.7071067690849304,0.7071067690849304,0.7071067690849304,-7.970252357801655,7.242483239067951)"><path d="M4.75732421875,12.7421875L16.75732421875,12.7421875Q16.80652421875,12.7421875,16.85482421875,12.7517945Q16.90312421875,12.761402499999999,16.94862421875,12.7802475Q16.994124218750002,12.7990935,17.03512421875,12.8264525Q17.07602421875,12.8538125,17.11092421875,12.8886345Q17.14572421875,12.9234565,17.17302421875,12.9644025Q17.20042421875,13.0053485,17.21922421875,13.0508455Q17.238124218750002,13.0963425,17.24772421875,13.1446424Q17.25732421875,13.1929418,17.25732421875,13.2421875Q17.25732421875,13.2914332,17.24772421875,13.3397326Q17.238124218750002,13.3880325,17.21922421875,13.4335295Q17.20042421875,13.4790265,17.17302421875,13.5199725Q17.14572421875,13.5609185,17.11092421875,13.5957405Q17.07602421875,13.6305625,17.03512421875,13.6579225Q16.994124218750002,13.6852815,16.94862421875,13.7041275Q16.90312421875,13.722972500000001,16.85482421875,13.7325805Q16.80652421875,13.7421875,16.75732421875,13.7421875L4.75732421875,13.7421875Q4.70807851875,13.7421875,4.65977911875,13.7325805Q4.61147921875,13.722972500000001,4.56598221875,13.7041275Q4.52048521875,13.6852815,4.47953921875,13.6579225Q4.43859321875,13.6305625,4.40377121875,13.5957405Q4.36894921875,13.5609185,4.34158921875,13.5199725Q4.31423021875,13.4790265,4.29538421875,13.4335295Q4.27653921875,13.3880325,4.26693121875,13.3397326Q4.25732421875,13.2914332,4.25732421875,13.2421875Q4.25732421875,13.1929418,4.26693121875,13.1446424Q4.27653921875,13.0963425,4.29538421875,13.0508455Q4.31423021875,13.0053485,4.34158921875,12.9644025Q4.36894921875,12.9234565,4.40377121875,12.8886345Q4.43859321875,12.8538125,4.47953921875,12.8264525Q4.52048521875,12.7990935,4.56598221875,12.7802475Q4.61147921875,12.761402499999999,4.65977911875,12.7517945Q4.70807851875,12.7421875,4.75732421875,12.7421875Z" fill-rule="evenodd" fill="#EEEEEE" fill-opacity="1"/></g><g transform="matrix(0.7071067690849304,0.7071067690849304,0.7071067690849304,-0.7071067690849304,-1.9705480968696065,4.75732421875)"><path d="M4.75732421875,4.25732421875L16.75732421875,4.25732421875Q16.80652421875,4.25732421875,16.85482421875,4.26693121875Q16.90312421875,4.27653921875,16.94862421875,4.29538421875Q16.994124218750002,4.31423021875,17.03512421875,4.34158921875Q17.07602421875,4.36894921875,17.11092421875,4.40377121875Q17.14572421875,4.43859321875,17.17302421875,4.47953921875Q17.20042421875,4.52048521875,17.21922421875,4.56598221875Q17.238124218750002,4.61147921875,17.24772421875,4.65977911875Q17.25732421875,4.70807851875,17.25732421875,4.75732421875Q17.25732421875,4.80656991875,17.24772421875,4.85486931875Q17.238124218750002,4.90316921875,17.21922421875,4.94866621875Q17.20042421875,4.99416321875,17.17302421875,5.03510921875Q17.14572421875,5.07605521875,17.11092421875,5.11087721875Q17.07602421875,5.14569921875,17.03512421875,5.17305921875Q16.994124218750002,5.20041821875,16.94862421875,5.21926421875Q16.90312421875,5.23810921875,16.85482421875,5.24771721875Q16.80652421875,5.25732421875,16.75732421875,5.25732421875L4.75732421875,5.25732421875Q4.70807851875,5.25732421875,4.65977911875,5.24771721875Q4.61147921875,5.23810921875,4.56598221875,5.21926421875Q4.52048521875,5.20041821875,4.47953921875,5.17305921875Q4.43859321875,5.14569921875,4.40377121875,5.11087721875Q4.36894921875,5.07605521875,4.34158921875,5.03510921875Q4.31423021875,4.99416321875,4.29538421875,4.94866621875Q4.27653921875,4.90316921875,4.26693121875,4.85486931875Q4.25732421875,4.80656991875,4.25732421875,4.75732421875Q4.25732421875,4.70807851875,4.26693121875,4.65977911875Q4.27653921875,4.61147921875,4.29538421875,4.56598221875Q4.31423021875,4.52048521875,4.34158921875,4.47953921875Q4.36894921875,4.43859321875,4.40377121875,4.40377121875Q4.43859321875,4.36894921875,4.47953921875,4.34158921875Q4.52048521875,4.31423021875,4.56598221875,4.29538421875Q4.61147921875,4.27653921875,4.65977911875,4.26693121875Q4.70807851875,4.25732421875,4.75732421875,4.25732421875Z" fill-rule="evenodd" fill="#EEEEEE" fill-opacity="1"/></g></g></svg>