<svg xmlns="http://www.w3.org/2000/svg" xmlns:xlink="http://www.w3.org/1999/xlink" fill="none" version="1.1" width="36" height="36" viewBox="0 0 36 36"><defs><clipPath id="master_svg0_79_00937/90_3837"><rect x="0" y="0" width="36" height="36" rx="0"/></clipPath></defs><g><g clip-path="url(#master_svg0_79_00937/90_3837)"><g><g><path d="M5,11L26,11L26,7Q26,5.7573609999999995,25.1213,4.87868Q24.2426,4,23,4L8,4Q6.75736,4,5.87868,4.87868Q5,5.757359,5,7L5,11ZM24,9L24,7Q24,6.58579,23.7071,6.29289Q23.4142,6,23,6L8,6Q7.58579,6,7.29289,6.29289Q7,6.58579,7,7L7,9L24,9Z" fill-rule="evenodd" fill="#E8EDF7" fill-opacity="1"/></g><g><path d="M28,12.65234L28,15.30469Q28,15.403179999999999,28.0192,15.499780000000001Q28.0384,15.59638,28.0761,15.68737Q28.1138,15.77836,28.1685,15.86026Q28.2232,15.94215,28.2929,16.01179Q28.3625,16.08144,28.4444,16.13616Q28.5263,16.19088,28.6173,16.22857Q28.7083,16.26626,28.8049,16.28547Q28.9015,16.30469,29,16.30469Q29.0985,16.30469,29.1951,16.28547Q29.2917,16.26626,29.3827,16.22857Q29.4737,16.19088,29.5556,16.13616Q29.6375,16.08144,29.7071,16.01179Q29.7767,15.94215,29.8315,15.86026Q29.8862,15.77836,29.9239,15.68737Q29.9616,15.59638,29.9808,15.499780000000001Q30,15.403179999999999,30,15.30469L30,12Q30,10.757357,29.1213,9.87868Q28.2426,9,27,9L5,9L5,29Q5,30.2426,5.87868,31.1213Q6.75736,32,8,32L16.834,32Q16.932499999999997,32,17.0291,31.9808Q17.125700000000002,31.9616,17.2167,31.9239Q17.3077,31.8862,17.3896,31.8315Q17.4714,31.7767,17.5411,31.7071Q17.6107,31.6375,17.6655,31.5556Q17.7202,31.4737,17.7579,31.3827Q17.7956,31.2917,17.814799999999998,31.1951Q17.834,31.0985,17.834,31Q17.834,30.9015,17.814799999999998,30.8049Q17.7956,30.7083,17.7579,30.6173Q17.7202,30.5263,17.6655,30.4444Q17.6107,30.3625,17.5411,30.2929Q17.4714,30.2232,17.3896,30.1685Q17.3077,30.1138,17.2167,30.0761Q17.125700000000002,30.0384,17.0291,30.0192Q16.932499999999997,30,16.834,30L8,30Q7,30,7,29L7,11L27,11Q28,11,28,12L28,12.65234Z" fill-rule="evenodd" fill="#E8EDF7" fill-opacity="1"/></g></g></g><g><path d="M26,23C25.318179999999998,23,24.71212,23.227273,24.257576,23.757576C23.80303,24.21212,23.5,24.818179999999998,23.5,25.5C23.5,26.181820000000002,23.727273,26.78788,24.257576,27.24242C24.71212,27.69697,25.24242,27.92424,25.84848,28L26,28C27.36364,28,28.5,26.86364,28.5,25.5C28.5,24.13636,27.36364,23,26,23ZM25.84848,24.43939L25.92424,24.43939C26.22727,24.43939,26.45455,24.51515,26.681820000000002,24.74242C26.90909,24.9697,26.98485,25.19697,26.98485,25.5C26.98485,26.10606,26.5303,26.56061,25.92424,26.56061C25.318179999999998,26.56061,24.86364,26.10606,24.86364,25.5C24.86364,24.89394,25.318179999999998,24.43939,25.84848,24.43939Z" fill="#E8EDF7" fill-opacity="1" style="mix-blend-mode:passthrough"/></g><g><path d="M33,25.5C33,25.02439,32.9195,24.62805,32.8391,24.15244C32.7586,23.59756,32.3563,23.28049,31.954,23.28049L31.8736,23.28049C31.1494,23.28049,30.505699999999997,22.64634,30.505699999999997,21.93293C30.505699999999997,21.77439,30.586199999999998,21.615850000000002,30.6667,21.37805C30.908,20.90244,30.7471,20.34756,30.264400000000002,20.03049L28.49425,19.0792683C28.33333,19,28.172420000000002,19,28.011490000000002,19C27.68966,19,27.367820000000002,19.158537,27.126440000000002,19.317073C26.88506,19.554878,26.32184,19.95122,26,19.95122C25.67816,19.95122,25.11494,19.554878,24.87356,19.317073C24.632179999999998,19.0792683,24.31035,19,23.988509999999998,19C23.82759,19,23.66667,19,23.50575,19.0792683L21.73563,20.03049C21.33333,20.34756,21.17241,20.90244,21.33333,21.37805C21.41379,21.53659,21.41379,21.69512,21.49425,21.93293C21.49425,22.64634,20.85057,23.28049,20.12644,23.28049L20.04598,23.28049C19.563218,23.28049,19.241379,23.59756,19.16092,24.15244C19.0804598,24.62805,19,25.02439,19,25.5C19,25.97561,19.0804598,26.37195,19.16092,26.84756C19.241379,27.323169999999998,19.643678,27.71951,20.04598,27.71951L20.12644,27.71951C20.85057,27.71951,21.49425,28.353659999999998,21.49425,29.0671C21.49425,29.2256,21.41379,29.3841,21.33333,29.622C21.09195,30.0976,21.25287,30.6524,21.73563,30.9695L23.42529,31.9207C23.58621,32,23.74713,32,23.90805,32C24.22989,32,24.55172,31.8415,24.7931,31.6037C25.034480000000002,31.3659,25.5977,30.8902,25.919539999999998,30.8902C26.24138,30.8902,26.8046,31.2866,27.04598,31.6037C27.28736,31.8415,27.6092,32,27.93104,32L28.011490000000002,32C28.172420000000002,32,28.25287,32,28.33333,31.9207L30.1034,30.9695C30.505699999999997,30.6524,30.6667,30.0976,30.505699999999997,29.622C30.4253,29.4634,30.4253,29.3049,30.3448,29.0671C30.3448,28.353659999999998,30.988500000000002,27.71951,31.712600000000002,27.71951L31.793100000000003,27.71951C32.2759,27.71951,32.5977,27.40244,32.678200000000004,26.84756C32.9195,26.37195,33,25.97561,33,25.5ZM28.97701,29.0671C28.97701,29.3049,29.057499999999997,29.622,29.137900000000002,29.8598L28.011490000000002,30.4939C27.85058,30.3354,27.77012,30.2561,27.6092,30.1768C27.126440000000002,29.7805,26.56322,29.622,26,29.5427C25.43678,29.5427,24.87356,29.7805,24.390810000000002,30.0976C24.22989,30.1768,24.06897,30.3354,23.90805,30.4939L22.86207,29.8598C22.94253,29.622,23.02299,29.3841,23.02299,29.0671C23.02299,27.64024,21.97701,26.53049,20.6092,26.29268C20.6092,26.05488,20.52874,25.73781,20.52874,25.5C20.52874,25.2622,20.52874,24.94512,20.6092,24.70732C21.97701,24.46951,23.02299,23.35976,23.02299,21.93293C23.02299,21.69512,22.94253,21.37805,22.86207,21.14024L23.988509999999998,20.5061C24.14943,20.66463,24.31035,20.7439,24.390810000000002,20.82317C24.87356,21.14024,25.35632,21.37805,26,21.37805C26.56322,21.37805,27.04598,21.14024,27.52874,20.82317C27.68966,20.7439,27.85058,20.58537,27.93104,20.5061L29.057499999999997,21.14024C28.97701,21.37805,28.896549999999998,21.615850000000002,28.896549999999998,21.93293C28.896549999999998,23.35976,29.942500000000003,24.46951,31.310299999999998,24.70732C31.310299999999998,24.94512,31.3908,25.2622,31.3908,25.5C31.3908,25.73781,31.3908,26.05488,31.310299999999998,26.29268C30.1034,26.53049,28.97701,27.64024,28.97701,29.0671Z" fill="#E8EDF7" fill-opacity="1" style="mix-blend-mode:passthrough"/><path d="M32.774699999999996,26.878239999999998Q33.1,26.22915,33.1,25.5Q33.1,25.07621,32.9681,24.31315Q32.9569,24.24795,32.9486,24.19997Q32.9423,24.16299,32.9379,24.13693L32.9379,24.13692L32.9379,24.1369Q32.8745,23.70223,32.5851,23.434919999999998Q32.3096,23.18049,31.954,23.18049L31.8736,23.18049Q31.3714,23.18049,30.988300000000002,22.803Q30.605800000000002,22.42613,30.6057,21.93293Q30.6057,21.83485,30.6973,21.58849Q30.7372,21.48098,30.7591,21.41683Q30.9544,21.02666,30.833,20.61643Q30.710900000000002,20.20412,30.3193,19.946904L30.3156,19.944486L28.54003,18.99034352L28.53844,18.9895614Q28.35663,18.9,28.011499999999998,18.9Q27.57929,18.9,27.07154,19.233489L27.063290000000002,19.238909L27.05626,19.245837Q26.84826,19.450754,26.54132,19.637948Q26.19163,19.85122,26,19.85122Q25.80837,19.85122,25.45868,19.637948Q25.15174,19.450754,24.94374,19.245837Q24.59271,18.9000001,23.988509999999998,18.9Q23.64337,18.9,23.46156,18.9895615L23.45997,18.99034355L21.6806,19.946539L21.67373,19.951949Q21.34814,20.20857,21.22739,20.61643Q21.10731,21.02204,21.23861,21.4101L21.24091,21.4169L21.24416,21.42331Q21.28364,21.5011,21.32365,21.68089Q21.35971,21.84296,21.39415,21.94878Q21.38809,22.4322,21.01172,22.803Q20.62856,23.18049,20.12644,23.18049L20.04598,23.18049Q19.642923,23.18049,19.382405,23.43715Q19.127461,23.68832,19.0621264,24.13691Q19.0519353,24.197119999999998,19.0318859,24.31313Q18.9,25.07623,18.9,25.5Q18.9,25.92378,19.0318861,26.68687Q19.0521298,26.804000000000002,19.0623205,26.86424Q19.128057,27.25282,19.412577,27.53313Q19.70327,27.81952,20.04598,27.81951L20.12644,27.81951Q20.62856,27.81951,21.01172,28.197Q21.39425,28.57387,21.39425,29.0671Q21.39425,29.1652,21.30272,29.4115Q21.26277,29.5191,21.24089,29.583199999999998Q21.0456,29.973300000000002,21.16705,30.3836Q21.28911,30.7959,21.68073,31.0531L21.68359,31.055L23.37863,32.0092L23.3811,32.010400000000004Q23.56292,32.1,23.90805,32.1Q24.43179,32.1,24.86329,31.6749Q25.10885,31.433,25.3837,31.2396Q25.73798,30.9902,25.919539999999998,30.9902Q26.12096,30.9902,26.45803,31.2116Q26.78568,31.4268,26.96641,31.6642L26.97072,31.6699L26.9758,31.6749Q27.40729,32.1,27.93104,32.1L28.011499999999998,32.1Q28.16206,32.1,28.22192,32.0882Q28.31927,32.069,28.39235,32.0025L30.1585,31.0535L30.165399999999998,31.048099999999998Q30.4909,30.7914,30.6117,30.3836Q30.7318,29.978,30.6005,29.5899L30.5982,29.5831L30.594900000000003,29.576700000000002Q30.5554,29.4989,30.5154,29.3191Q30.4794,29.157,30.4449,29.0512Q30.451,28.56781,30.8274,28.197Q31.2105,27.81951,31.712600000000002,27.81951L31.793100000000003,27.81951Q32.1962,27.81952,32.4567,27.562849999999997Q32.707300000000004,27.315939999999998,32.774699999999996,26.878239999999998ZM31.954,23.28049C32.3563,23.28049,32.7586,23.59756,32.8391,24.15244C32.9195,24.62805,33,25.02439,33,25.5C33,25.97561,32.9195,26.37195,32.678200000000004,26.84756C32.5977,27.40244,32.2759,27.71951,31.793100000000003,27.71951L31.712600000000002,27.71951C30.988500000000002,27.71951,30.3448,28.353659999999998,30.3448,29.0671C30.4253,29.3049,30.4253,29.4634,30.505699999999997,29.622C30.6667,30.0976,30.505699999999997,30.6524,30.1034,30.9695L28.33333,31.9207C28.25287,32,28.172420000000002,32,28.011490000000002,32L27.93104,32C27.6092,32,27.28736,31.8415,27.04598,31.6037C26.8046,31.2866,26.24138,30.8902,25.919539999999998,30.8902C25.5977,30.8902,25.034480000000002,31.3659,24.7931,31.6037C24.55172,31.8415,24.22989,32,23.90805,32C23.74713,32,23.58621,32,23.42529,31.9207L21.73563,30.9695C21.25287,30.6524,21.09195,30.0976,21.33333,29.622C21.41379,29.3841,21.49425,29.2256,21.49425,29.0671C21.49425,28.353659999999998,20.85057,27.71951,20.12644,27.71951L20.04598,27.71951C19.643678,27.71951,19.241379,27.323169999999998,19.16092,26.84756C19.0804598,26.37195,19,25.97561,19,25.5C19,25.02439,19.0804598,24.62805,19.16092,24.15244C19.241379,23.59756,19.563218,23.28049,20.04598,23.28049L20.12644,23.28049C20.85057,23.28049,21.49425,22.64634,21.49425,21.93293C21.41379,21.69512,21.41379,21.53659,21.33333,21.37805C21.17241,20.90244,21.33333,20.34756,21.73563,20.03049L23.50575,19.0792683C23.66667,19,23.82759,19,23.988509999999998,19C24.31035,19,24.632179999999998,19.0792683,24.87356,19.317073C25.11494,19.554878,25.67816,19.95122,26,19.95122C26.32184,19.95122,26.88506,19.554878,27.126440000000002,19.317073C27.367820000000002,19.158537,27.68966,19,28.011490000000002,19C28.172420000000002,19,28.33333,19,28.49425,19.0792683L30.264400000000002,20.03049C30.7471,20.34756,30.908,20.90244,30.6667,21.37805C30.586199999999998,21.615850000000002,30.505699999999997,21.77439,30.505699999999997,21.93293C30.505699999999997,22.64634,31.1494,23.28049,31.8736,23.28049L31.954,23.28049ZM27.6092,30.1768C27.126440000000002,29.7805,26.56322,29.622,26,29.5427C25.43678,29.5427,24.87356,29.7805,24.390810000000002,30.0976C24.22989,30.1768,24.06897,30.3354,23.90805,30.4939L22.86207,29.8598C22.94253,29.622,23.02299,29.3841,23.02299,29.0671C23.02299,27.64024,21.97701,26.53049,20.6092,26.29268C20.6092,26.05488,20.52874,25.73781,20.52874,25.5C20.52874,25.2622,20.52874,24.94512,20.6092,24.70732C21.97701,24.46951,23.02299,23.35976,23.02299,21.93293C23.02299,21.69512,22.94253,21.37805,22.86207,21.14024L23.988509999999998,20.5061C24.14943,20.66463,24.31035,20.7439,24.390810000000002,20.82317C24.87356,21.14024,25.35632,21.37805,26,21.37805C26.56322,21.37805,27.04598,21.14024,27.52874,20.82317C27.68966,20.7439,27.85058,20.58537,27.93104,20.5061L29.057499999999997,21.14024C28.97701,21.37805,28.896549999999998,21.615850000000002,28.896549999999998,21.93293C28.896549999999998,23.35976,29.942500000000003,24.46951,31.310299999999998,24.70732C31.310299999999998,24.94512,31.3908,25.2622,31.3908,25.5C31.3908,25.73781,31.3908,26.05488,31.310299999999998,26.29268C30.1034,26.53049,28.97701,27.64024,28.97701,29.0671C28.97701,29.3049,29.057499999999997,29.622,29.137900000000002,29.8598L28.011490000000002,30.4939C27.85058,30.3354,27.77012,30.2561,27.6092,30.1768ZM26,29.442700000000002Q25.20799,29.442700000000002,24.34084,30.0107Q24.3215,30.0206,24.3003,30.0332Q24.14623,30.1253,23.893720000000002,30.368299999999998L22.98192,29.8155Q22.98901,29.793300000000002,22.99575,29.7715Q23.12299,29.3589,23.12299,29.0671Q23.12299,27.975009999999997,22.4037,27.167479999999998Q21.72958,26.41067,20.70591,26.20892L20.70589,26.20858Q20.69751,26.08601,20.66793,25.881990000000002Q20.62874,25.61169,20.62874,25.5Q20.62874,25.02348,20.68763,24.79464Q20.72379,24.78771,20.7595,24.78009Q21.7473,24.56943,22.4037,23.83252Q23.12299,23.025,23.12299,21.93293Q23.12299,21.62653,22.98274,21.18707L23.97409,20.62897Q23.97658,20.63115,23.97909,20.63333Q24.06768,20.71032,24.197969999999998,20.80109Q24.29335,20.86753,24.320619999999998,20.89441L24.32766,20.90134L24.33591,20.90675Q24.75654,21.18302,25.09962,21.31302Q25.53514,21.47805,26,21.47805Q26.71177,21.47805,27.57864,20.91003Q27.59785,20.90035,27.61799,20.88873Q27.75974,20.80699,27.94692,20.6298L28.93681,21.18707Q28.930149999999998,21.20792,28.9238,21.22853Q28.79655,21.64109,28.79655,21.93293Q28.79655,23.025,29.5158,23.83252Q30.189999999999998,24.58933,31.2136,24.79108Q31.2147,24.806910000000002,31.2161,24.82419Q31.2258,24.94016,31.2516,25.118009999999998Q31.2908,25.38832,31.2908,25.5Q31.2908,25.97812,31.2315,26.20689Q31.200400000000002,26.213639999999998,31.169600000000003,26.221Q30.2676,26.43639,29.6164,27.167479999999998Q28.87701,27.99758,28.87701,29.0671Q28.87701,29.3735,29.0173,29.8129L28.02738,30.3702Q28.02351,30.366500000000002,28.019669999999998,30.3629Q27.814149999999998,30.169600000000003,27.66397,30.092399999999998Q27.59033,30.032600000000002,27.51089,29.977800000000002Q26.92194,29.5715,26.013939999999998,29.4437L26.006999999999998,29.442700000000002L26,29.442700000000002Z" fill-rule="evenodd" fill="#E8EDF7" fill-opacity="1"/></g></g></svg>