<svg version="1.1" id="Layer_1" xmlns="http://www.w3.org/2000/svg" xmlns:xlink="http://www.w3.org/1999/xlink" x="0px" y="0px"
	 width="100%" viewBox="0 0 2720 615" enable-background="new 0 0 2720 615" xml:space="preserve">
<path fill="#FFFFFF" opacity="1.000000" stroke="none" 
	d="
M2721.000000,523.000000 
	C2721.000000,553.987976 2721.000000,584.975891 2721.000000,616.000000 
	C2389.640869,616.000000 2058.281738,616.000000 1726.612305,615.603027 
	C1739.360229,613.473877 1752.425903,611.797546 1765.474365,609.996216 
	C1784.085938,607.426941 1801.708008,601.359680 1818.819580,593.937317 
	C1845.842163,582.216064 1868.817505,564.675842 1888.454102,542.888489 
	C1896.180298,534.316162 1894.622437,521.007019 1886.145142,515.153870 
	C1862.675171,498.948975 1838.871704,483.219269 1815.002197,467.604279 
	C1804.575317,460.783173 1794.186157,463.289856 1788.518066,470.304657 
	C1781.168579,479.400635 1772.456543,486.550262 1762.288574,491.874969 
	C1750.277344,498.165039 1737.035034,500.972992 1723.706787,501.804047 
	C1705.357422,502.948242 1686.867432,502.685303 1669.182983,496.569458 
	C1647.904907,489.210876 1630.267212,476.853699 1617.939331,457.578247 
	C1612.515015,449.097137 1612.413818,443.643036 1617.709595,435.673553 
	C1621.286743,430.290558 1626.735596,428.407776 1632.637695,428.097931 
	C1640.282227,427.696594 1647.963745,428.000000 1655.629272,428.000000 
	C1738.117554,428.000000 1820.606079,427.924103 1903.093994,428.114380 
	C1911.578369,428.133972 1919.869629,421.393219 1920.847778,413.726501 
	C1922.092651,403.968109 1922.578125,394.089294 1922.904663,384.246246 
	C1923.094727,378.512054 1922.620972,372.712097 1921.941895,367.001648 
	C1920.368652,353.771332 1919.467773,340.353607 1916.509521,327.420044 
	C1911.807373,306.861786 1903.614258,287.537933 1893.123413,269.098480 
	C1878.220215,242.903793 1858.843994,220.709686 1834.944946,202.619766 
	C1815.864136,188.177124 1794.704224,177.295715 1771.840942,169.992798 
	C1746.154663,161.788177 1719.933838,157.082504 1692.842773,159.038300 
	C1682.250122,159.803009 1671.626953,160.571289 1661.126221,162.089050 
	C1640.785522,165.029037 1621.496094,171.699921 1603.039551,180.558685 
	C1584.761230,189.331894 1567.468262,199.894424 1552.736328,213.941589 
	C1540.826782,225.297745 1528.843018,236.780960 1518.478394,249.500412 
	C1505.657349,265.234406 1496.000244,283.154663 1487.961060,301.895142 
	C1477.807739,325.564423 1471.789429,350.303345 1470.232056,375.864624 
	C1469.142212,393.752075 1469.704712,411.724731 1472.823120,429.614716 
	C1476.296143,449.539612 1481.402588,468.880432 1489.780762,487.243408 
	C1502.401001,514.904480 1519.416870,539.332031 1542.677002,559.363892 
	C1559.112061,573.517944 1576.899536,585.242859 1596.712646,593.982239 
	C1621.867432,605.077759 1648.082153,611.946289 1675.526489,614.073608 
	C1676.726929,614.166687 1677.844116,615.333435 1679.000000,616.000000 
	C1528.974121,616.000000 1378.948364,616.000000 1228.615479,615.600708 
	C1236.373901,614.137024 1244.439819,613.076599 1252.504517,612.007446 
	C1273.111328,609.275452 1292.562744,602.579102 1310.984375,593.336426 
	C1333.932617,581.822449 1354.860352,567.198975 1371.213867,547.089661 
	C1380.692261,535.434631 1390.177734,523.551758 1397.809448,510.674622 
	C1416.974854,478.336334 1426.426147,442.723206 1428.822388,405.411621 
	C1430.176025,384.335693 1429.547852,363.094208 1425.847534,342.226746 
	C1422.284424,322.132233 1416.668091,302.586121 1408.474731,283.730804 
	C1399.636230,263.390686 1388.103516,244.804504 1373.568604,228.275360 
	C1353.198730,205.110825 1328.821411,187.213791 1300.045166,175.486984 
	C1267.863159,162.372223 1234.583740,156.635895 1199.938721,160.081604 
	C1188.497437,161.219498 1177.032227,162.761230 1165.794800,165.142242 
	C1150.830322,168.312927 1136.595215,173.751328 1123.463867,181.833282 
	C1119.779663,184.100861 1116.031738,186.585052 1111.964355,187.839462 
	C1104.845337,190.035080 1098.008667,182.858521 1098.006348,173.709961 
	C1097.993164,120.900505 1097.868408,68.090309 1098.167969,15.282557 
	C1098.204956,8.749709 1096.067627,4.420337 1091.000000,1.000000 
	C1391.359131,1.000000 1691.718384,1.000000 1992.435791,1.356845 
	C1985.001831,3.784657 1980.000854,11.007831 1980.000732,20.208952 
	C1979.999878,208.649368 1980.000000,397.089783 1980.000000,585.530212 
	C1980.000000,586.196655 1979.988159,586.863403 1980.001953,587.529541 
	C1980.198486,596.968567 1987.967651,604.947998 1997.387573,604.969055 
	C2032.209717,605.046936 2067.032959,605.128906 2101.854004,604.913391 
	C2111.075684,604.856262 2119.008301,597.057251 2119.007568,587.301147 
	C2118.997314,397.861023 2119.001953,208.420929 2118.968506,18.980789 
	C2118.968262,17.233002 2118.515625,15.480919 2118.228516,13.738370 
	C2117.144287,7.154877 2111.830322,4.288328 2107.000000,1.000000 
	C2311.590332,1.000000 2516.180420,1.000000 2721.000000,1.000000 
	C2721.000000,173.359100 2721.000000,345.718323 2720.662598,518.441772 
	C2712.195557,504.757568 2704.040771,490.723846 2695.942139,476.657867 
	C2679.966553,448.910797 2664.085938,421.109009 2648.013184,393.418518 
	C2644.698975,387.709015 2640.717285,382.387054 2636.849121,376.555847 
	C2618.808838,371.503418 2601.045898,366.428314 2583.080566,362.213348 
	C2574.491455,360.198212 2565.142578,354.296631 2556.992432,364.587738 
	C2558.521240,368.632782 2560.209717,373.347382 2562.159668,377.951324 
	C2562.409180,378.540680 2564.019775,378.553467 2565.256836,378.893188 
	C2565.684814,378.913116 2565.856201,378.873260 2566.328125,378.979431 
	C2567.418945,379.361450 2568.209229,379.597412 2569.387207,379.905304 
	C2571.188721,380.332031 2572.669189,380.522919 2574.006104,381.067047 
	C2586.764893,386.260071 2593.399414,396.344421 2592.783203,407.717926 
	C2591.883789,424.312531 2577.781738,435.911560 2561.782959,434.056244 
	C2542.597412,431.831390 2531.493896,409.972595 2541.203613,393.305420 
	C2542.008545,391.923676 2542.370850,389.695526 2541.855957,388.245087 
	C2540.360596,384.033234 2538.314209,380.017059 2536.439453,375.824677 
	C2532.140869,378.348816 2528.229004,380.659149 2524.303467,382.946289 
	C2520.883789,384.938690 2517.864014,386.607239 2516.805908,391.400299 
	C2513.030273,408.502106 2508.616943,425.468018 2504.205078,442.422913 
	C2501.489258,452.858887 2500.191162,463.002350 2506.877686,472.556732 
	C2508.081055,474.276215 2508.962402,476.219757 2510.009766,478.049866 
	C2518.250977,492.444824 2526.464355,506.855621 2534.747803,521.226196 
	C2545.466553,539.820923 2556.245361,558.381104 2566.991455,576.960083 
	C2571.794434,585.263916 2576.610107,593.560486 2581.351074,601.899719 
	C2582.389160,603.725525 2583.070068,604.596863 2585.429443,603.173523 
	C2596.424561,596.540161 2607.619629,590.238708 2618.671143,583.697388 
	C2640.361328,570.859253 2661.996338,557.927795 2683.669189,545.060303 
	C2696.097656,537.681335 2708.555420,530.351746 2721.000000,523.000000 
M2273.000244,375.726929 
	C2273.997803,369.988007 2274.885254,364.227356 2276.011719,358.513916 
	C2280.845947,333.991913 2292.195312,312.768738 2309.069580,294.498657 
	C2321.684814,280.839874 2336.336914,269.605103 2353.843750,263.259094 
	C2365.551514,259.015198 2377.926270,255.525223 2390.257812,254.326538 
	C2412.060303,252.207291 2433.287109,255.684219 2453.676758,264.742493 
	C2472.466064,273.089783 2488.883301,284.085327 2501.764404,300.227264 
	C2515.582764,317.543091 2524.732422,337.380524 2533.224609,357.601379 
	C2540.482666,374.883636 2547.605713,392.228241 2555.279785,409.324585 
	C2556.539795,412.132294 2560.014893,414.642944 2563.035889,415.787903 
	C2566.879395,417.244659 2570.694824,415.118652 2572.662598,411.587738 
	C2575.117188,407.183594 2573.482666,403.019318 2570.684814,399.086029 
	C2567.616211,394.772705 2564.231934,390.506104 2562.123779,385.717834 
	C2552.633057,364.160156 2544.114990,342.157104 2534.093994,320.856720 
	C2528.374023,308.698730 2521.389648,296.856659 2513.240234,286.198456 
	C2505.006836,275.430420 2494.100342,267.003326 2482.381592,259.789093 
	C2461.181152,246.738022 2438.331055,238.303452 2413.583984,236.180939 
	C2395.251221,234.608582 2377.073486,236.649750 2359.478516,242.846313 
	C2331.568359,252.675705 2307.991455,268.627075 2289.057129,291.417908 
	C2269.297119,315.202881 2258.007812,342.642395 2255.179932,373.252838 
	C2253.516602,391.254944 2255.898682,409.107635 2261.762695,426.394257 
	C2269.315674,448.659210 2281.195312,468.250183 2297.612549,485.045563 
	C2302.340088,489.881958 2307.622803,494.173523 2312.396973,498.967590 
	C2316.329102,502.916107 2314.692627,507.930237 2309.659668,510.138672 
	C2304.933594,512.212646 2302.096191,509.436005 2299.451416,506.809753 
	C2292.284668,499.693481 2285.208496,492.459167 2278.505127,484.908783 
	C2264.190186,468.785278 2253.916260,450.219818 2247.038330,429.861359 
	C2241.403564,413.182922 2238.147705,396.064453 2239.998535,378.306915 
	C2240.760010,371.000977 2240.879639,363.561707 2242.382568,356.412415 
	C2246.210449,338.201843 2253.240967,321.184418 2262.956055,305.269592 
	C2273.736084,287.610687 2287.333496,272.344757 2303.335693,259.431946 
	C2316.124023,249.112946 2330.151367,240.513641 2345.443604,234.148132 
	C2361.671143,227.393356 2378.516357,223.034348 2396.029541,222.105530 
	C2417.067871,220.989746 2437.430664,224.585419 2457.287109,231.895844 
	C2483.654053,241.603302 2506.016602,256.661224 2523.974854,278.383270 
	C2539.691162,297.393402 2550.824707,318.795044 2558.553223,342.083405 
	C2559.566162,345.135925 2559.319580,349.499725 2561.347412,351.063599 
	C2563.265869,352.543152 2567.567627,350.448883 2570.544922,351.130951 
	C2578.969238,353.060669 2587.231201,355.688751 2595.596191,357.892151 
	C2607.279541,360.969604 2618.998535,363.911499 2630.791748,366.934326 
	C2625.035645,302.524475 2598.394043,249.054703 2549.115967,207.870560 
	C2499.733398,166.599075 2442.211426,150.196198 2378.256104,156.006317 
	C2296.766113,163.409454 2206.756836,221.305298 2180.496094,328.114807 
	C2158.320557,418.307251 2190.305176,526.066833 2291.340576,583.497498 
	C2370.006836,628.213074 2475.195312,621.600830 2548.350830,559.424255 
	C2545.999512,555.530945 2543.341309,551.681824 2541.276855,547.536987 
	C2539.604492,544.179626 2538.337891,544.747253 2535.735840,546.629700 
	C2523.836182,555.238770 2512.234131,564.412720 2499.619629,571.846985 
	C2475.615723,585.993225 2449.078369,592.948242 2421.442139,594.808167 
	C2405.536377,595.878723 2389.585938,594.877563 2373.686523,592.178223 
	C2348.732422,587.941650 2324.928467,580.850281 2302.786133,568.386536 
	C2286.228027,559.065979 2271.174805,547.834045 2257.850586,534.299194 
	C2253.928223,530.314697 2253.954590,526.585571 2257.689453,522.798645 
	C2261.417236,519.019104 2265.213623,518.998291 2269.213379,522.718689 
	C2273.804688,526.989258 2278.090576,531.665100 2283.061035,535.437744 
	C2299.265381,547.736938 2316.417236,558.425903 2335.397705,566.127991 
	C2356.496094,574.689392 2378.345215,579.306641 2401.032471,579.921509 
	C2407.603271,580.099609 2414.197998,579.297668 2420.784424,579.007690 
	C2434.632568,578.397949 2448.278076,576.057617 2461.146973,571.167542 
	C2475.190918,565.830933 2489.110596,559.830261 2502.286133,552.653503 
	C2512.586914,547.042664 2521.668457,539.193604 2531.388672,532.270081 
	C2526.076904,522.219788 2521.320312,512.944336 2516.306641,503.809845 
	C2511.204590,494.514435 2505.751709,485.411682 2500.650146,476.115875 
	C2498.444092,472.095612 2496.754639,472.614136 2493.788330,475.534241 
	C2489.010986,480.237244 2484.081543,484.965271 2478.548340,488.690613 
	C2451.157471,507.131836 2421.359619,516.365967 2387.939453,512.117615 
	C2375.288818,510.509552 2363.208008,507.132843 2352.085449,501.363098 
	C2332.941650,491.432526 2315.520996,479.143036 2301.501465,462.234772 
	C2291.344727,449.985504 2283.664307,436.532135 2278.420410,421.715515 
	C2273.282471,407.198456 2272.269531,392.001953 2273.000244,375.726929 
z"/>
<path fill="#FFFFFF" opacity="1.000000" stroke="none" 
	d="
M1189.000000,616.000000 
	C1009.643372,616.000000 830.286682,616.000000 650.593811,615.619690 
	C651.639587,614.826355 652.998413,614.294922 654.407349,614.019226 
	C664.380920,612.067566 674.488586,610.653809 684.318970,608.148376 
	C703.072144,603.368835 719.881775,594.351379 735.492493,583.027466 
	C739.415710,580.181580 743.498657,579.160767 747.884644,581.981445 
	C751.640381,584.396790 754.220154,587.317627 754.083374,592.315247 
	C753.889648,599.390015 759.652832,604.980896 766.712036,604.986938 
	C800.870239,605.015991 835.028503,605.016357 869.186707,604.987427 
	C876.834717,604.980957 881.998779,599.726257 881.998901,592.124146 
	C882.000427,455.324615 882.000671,318.525116 881.998230,181.725601 
	C881.998108,174.065796 877.083435,169.025818 869.372864,169.017014 
	C835.048035,168.977829 800.723145,168.993912 766.398315,169.007019 
	C761.578857,169.008865 757.606628,170.933228 756.019897,175.568039 
	C754.791809,179.155350 754.168091,183.102264 754.113464,186.901367 
	C754.038940,192.082260 752.537781,196.389526 748.025452,198.915848 
	C743.426208,201.490860 738.948364,199.971481 734.760315,197.272369 
	C729.890747,194.134003 725.104370,190.827118 720.032410,188.048859 
	C692.505432,172.970428 662.483337,167.989731 631.629700,167.146118 
	C621.821106,166.877930 611.932312,168.026886 602.140747,169.086578 
	C592.473328,170.132828 582.761230,171.339142 573.282532,173.439972 
	C551.506409,178.266373 531.098877,186.743912 511.836243,198.002670 
	C491.235443,210.043594 473.602417,225.645218 458.666443,244.056015 
	C446.167053,259.463348 436.505707,276.727325 428.920258,295.165466 
	C418.977234,319.333984 413.559875,344.564667 412.203247,370.466492 
	C410.905060,395.252289 412.394592,419.946136 417.809509,444.429077 
	C423.354706,469.501129 432.483459,493.040100 445.611755,514.890625 
	C457.373627,534.466858 472.189911,551.689209 489.831421,566.420044 
	C501.170593,575.888306 513.251831,584.149109 526.301086,591.023438 
	C550.379944,603.708191 575.967102,611.360535 603.050171,614.076416 
	C603.757324,614.147278 604.352539,615.333740 605.000000,616.000000 
	C403.666656,616.000000 202.333328,616.000000 1.000000,616.000000 
	C1.000000,607.585327 1.000000,599.257690 1.345208,590.546753 
	C2.294934,591.105347 2.923458,592.032715 3.500189,592.991333 
	C8.017055,600.499390 14.532976,604.954712 23.391008,604.959351 
	C139.524307,605.020386 255.657669,605.018250 371.790894,604.906311 
	C375.067719,604.903198 378.561371,604.006042 381.578827,602.675232 
	C390.929169,598.551514 394.789459,590.501038 394.909454,580.876160 
	C395.191895,558.219482 395.057495,535.556702 394.954529,512.896973 
	C394.932220,507.992676 394.518036,503.069611 393.954712,498.193268 
	C393.170563,491.405304 385.632965,483.123383 378.856812,482.099121 
	C373.368622,481.269592 367.745789,481.048889 362.182220,481.043274 
	C295.867981,480.976166 229.553391,480.902039 163.239609,481.086884 
	C150.745407,481.121704 139.834106,471.036346 139.856720,458.016541 
	C140.090027,323.722137 140.061310,189.427155 139.920166,55.132511 
	C139.903076,38.872219 130.600143,30.376194 115.258362,30.137852 
	C85.107628,29.669441 54.943333,29.854717 24.787210,30.093431 
	C16.346638,30.160248 8.934134,33.172947 4.368184,41.069820 
	C3.519198,42.538155 2.136422,43.697857 1.000000,45.000000 
	C1.000000,30.339581 1.000000,15.679163 1.000000,1.000000 
	C322.689972,1.000000 644.379944,1.000000 966.446838,1.343055 
	C962.216919,4.046232 959.918640,7.471430 959.921326,12.990108 
	C960.015564,205.721909 960.000000,398.453766 960.000000,591.185608 
	C960.000000,600.973328 964.035706,604.996704 973.892151,604.998108 
	C1007.207947,605.003052 1040.524658,604.863281 1073.838745,605.104370 
	C1081.360107,605.158813 1087.618164,600.363281 1087.992310,591.759399 
	C1088.346191,583.619690 1097.759766,578.225830 1105.242798,583.501587 
	C1129.778931,600.800354 1157.113525,610.999084 1187.052490,614.076050 
	C1187.760132,614.148743 1188.353394,615.333801 1189.000000,616.000000 
z"/>
<path fill="#000000" opacity="1.000000" stroke="none" 
	d="
M1189.399902,616.000000 
	C1188.353394,615.333801 1187.760132,614.148743 1187.052490,614.076050 
	C1157.113525,610.999084 1129.778931,600.800354 1105.242798,583.501587 
	C1097.759766,578.225830 1088.346191,583.619690 1087.992310,591.759399 
	C1087.618164,600.363281 1081.360107,605.158813 1073.838745,605.104370 
	C1040.524658,604.863281 1007.207947,605.003052 973.892151,604.998108 
	C964.035706,604.996704 960.000000,600.973328 960.000000,591.185608 
	C960.000000,398.453766 960.015564,205.721909 959.921326,12.990108 
	C959.918640,7.471430 962.216919,4.046232 966.911865,1.343055 
	C1008.020935,1.000000 1049.041870,1.000000 1090.531372,1.000000 
	C1096.067627,4.420337 1098.204956,8.749709 1098.167969,15.282557 
	C1097.868408,68.090309 1097.993164,120.900505 1098.006348,173.709961 
	C1098.008667,182.858521 1104.845337,190.035080 1111.964355,187.839462 
	C1116.031738,186.585052 1119.779663,184.100861 1123.463867,181.833282 
	C1136.595215,173.751328 1150.830322,168.312927 1165.794800,165.142242 
	C1177.032227,162.761230 1188.497437,161.219498 1199.938721,160.081604 
	C1234.583740,156.635895 1267.863159,162.372223 1300.045166,175.486984 
	C1328.821411,187.213791 1353.198730,205.110825 1373.568604,228.275360 
	C1388.103516,244.804504 1399.636230,263.390686 1408.474731,283.730804 
	C1416.668091,302.586121 1422.284424,322.132233 1425.847534,342.226746 
	C1429.547852,363.094208 1430.176025,384.335693 1428.822388,405.411621 
	C1426.426147,442.723206 1416.974854,478.336334 1397.809448,510.674622 
	C1390.177734,523.551758 1380.692261,535.434631 1371.213867,547.089661 
	C1354.860352,567.198975 1333.932617,581.822449 1310.984375,593.336426 
	C1292.562744,602.579102 1273.111328,609.275452 1252.504517,612.007446 
	C1244.439819,613.076599 1236.373901,614.137024 1228.154297,615.600708 
	C1219.312378,616.000000 1210.624878,616.000000 1201.325928,615.609619 
	C1198.143188,615.479431 1195.571533,615.739746 1193.000000,616.000000 
	C1191.933350,616.000000 1190.866577,616.000000 1189.399902,616.000000 
M1093.957520,365.291138 
	C1093.305054,369.120056 1092.194824,372.935669 1092.083252,376.780273 
	C1091.701538,389.928925 1091.771729,403.060394 1094.976929,415.980957 
	C1102.650146,446.913055 1119.410522,470.606079 1149.056763,483.984070 
	C1173.501221,495.014709 1198.724609,496.257416 1224.137451,488.250824 
	C1240.727173,483.023987 1254.992188,473.873474 1266.405762,460.283356 
	C1274.525513,450.615173 1280.769043,440.071838 1284.988770,428.276947 
	C1291.406128,410.339722 1293.372437,391.968109 1291.122437,372.964233 
	C1289.511963,359.361572 1285.993164,346.452362 1279.979370,334.240051 
	C1273.078857,320.227020 1263.088501,308.622223 1250.667236,299.264587 
	C1236.585083,288.655823 1220.476318,282.363647 1202.992432,281.258453 
	C1191.758911,280.548309 1180.201416,281.348694 1169.084351,283.222504 
	C1150.449097,286.363434 1133.979858,295.099823 1121.110474,308.843140 
	C1113.721802,316.733551 1107.639771,326.307465 1102.869507,336.053467 
	C1098.567383,344.843109 1096.852661,354.899139 1093.957520,365.291138 
z"/>
<path fill="#000000" opacity="1.000000" stroke="none" 
	d="
M605.399963,616.000000 
	C604.352539,615.333740 603.757324,614.147278 603.050171,614.076416 
	C575.967102,611.360535 550.379944,603.708191 526.301086,591.023438 
	C513.251831,584.149109 501.170593,575.888306 489.831421,566.420044 
	C472.189911,551.689209 457.373627,534.466858 445.611755,514.890625 
	C432.483459,493.040100 423.354706,469.501129 417.809509,444.429077 
	C412.394592,419.946136 410.905060,395.252289 412.203247,370.466492 
	C413.559875,344.564667 418.977234,319.333984 428.920258,295.165466 
	C436.505707,276.727325 446.167053,259.463348 458.666443,244.056015 
	C473.602417,225.645218 491.235443,210.043594 511.836243,198.002670 
	C531.098877,186.743912 551.506409,178.266373 573.282532,173.439972 
	C582.761230,171.339142 592.473328,170.132828 602.140747,169.086578 
	C611.932312,168.026886 621.821106,166.877930 631.629700,167.146118 
	C662.483337,167.989731 692.505432,172.970428 720.032410,188.048859 
	C725.104370,190.827118 729.890747,194.134003 734.760315,197.272369 
	C738.948364,199.971481 743.426208,201.490860 748.025452,198.915848 
	C752.537781,196.389526 754.038940,192.082260 754.113464,186.901367 
	C754.168091,183.102264 754.791809,179.155350 756.019897,175.568039 
	C757.606628,170.933228 761.578857,169.008865 766.398315,169.007019 
	C800.723145,168.993912 835.048035,168.977829 869.372864,169.017014 
	C877.083435,169.025818 881.998108,174.065796 881.998230,181.725601 
	C882.000671,318.525116 882.000427,455.324615 881.998901,592.124146 
	C881.998779,599.726257 876.834717,604.980957 869.186707,604.987427 
	C835.028503,605.016357 800.870239,605.015991 766.712036,604.986938 
	C759.652832,604.980896 753.889648,599.390015 754.083374,592.315247 
	C754.220154,587.317627 751.640381,584.396790 747.884644,581.981445 
	C743.498657,579.160767 739.415710,580.181580 735.492493,583.027466 
	C719.881775,594.351379 703.072144,603.368835 684.318970,608.148376 
	C674.488586,610.653809 664.380920,612.067566 654.407349,614.019226 
	C652.998413,614.294922 651.639587,614.826355 650.128784,615.619690 
	C648.611084,616.000000 647.222229,616.000000 645.315125,615.644531 
	C643.531311,615.526001 642.265625,615.763000 641.000000,616.000000 
	C633.312439,616.000000 625.624817,616.000000 617.326050,615.609619 
	C614.143250,615.479492 611.571594,615.739746 609.000000,616.000000 
	C607.933289,616.000000 606.866638,616.000000 605.399963,616.000000 
M632.615295,491.999878 
	C635.027710,492.333252 637.458923,493.050476 639.849365,492.933746 
	C650.348022,492.420898 660.994629,492.591125 671.293335,490.811096 
	C693.815613,486.918304 712.425171,475.540344 726.632935,457.671326 
	C740.256836,440.536713 746.973755,420.379456 748.823486,398.832123 
	C750.003601,385.085754 749.270264,371.194885 745.978455,357.643921 
	C740.432495,334.813568 729.738525,314.778839 710.786560,300.535858 
	C685.702698,281.684570 657.005066,277.039307 626.627380,283.117889 
	C608.814941,286.682098 593.305542,295.506622 580.487976,308.254547 
	C570.826904,317.863159 563.544189,329.295319 558.305298,342.101257 
	C549.566223,363.463196 548.084534,385.614349 551.257385,407.987213 
	C553.214966,421.791138 557.978943,435.008270 565.489502,447.111603 
	C574.723511,461.992157 586.527100,474.249664 602.278015,481.808990 
	C611.579346,486.272980 621.872253,488.670807 632.615295,491.999878 
z"/>
<path fill="#000000" opacity="1.000000" stroke="none" 
	d="
M1679.428467,616.000000 
	C1677.844116,615.333435 1676.726929,614.166687 1675.526489,614.073608 
	C1648.082153,611.946289 1621.867432,605.077759 1596.712646,593.982239 
	C1576.899536,585.242859 1559.112061,573.517944 1542.677002,559.363892 
	C1519.416870,539.332031 1502.401001,514.904480 1489.780762,487.243408 
	C1481.402588,468.880432 1476.296143,449.539612 1472.823120,429.614716 
	C1469.704712,411.724731 1469.142212,393.752075 1470.232056,375.864624 
	C1471.789429,350.303345 1477.807739,325.564423 1487.961060,301.895142 
	C1496.000244,283.154663 1505.657349,265.234406 1518.478394,249.500412 
	C1528.843018,236.780960 1540.826782,225.297745 1552.736328,213.941589 
	C1567.468262,199.894424 1584.761230,189.331894 1603.039551,180.558685 
	C1621.496094,171.699921 1640.785522,165.029037 1661.126221,162.089050 
	C1671.626953,160.571289 1682.250122,159.803009 1692.842773,159.038300 
	C1719.933838,157.082504 1746.154663,161.788177 1771.840942,169.992798 
	C1794.704224,177.295715 1815.864136,188.177124 1834.944946,202.619766 
	C1858.843994,220.709686 1878.220215,242.903793 1893.123413,269.098480 
	C1903.614258,287.537933 1911.807373,306.861786 1916.509521,327.420044 
	C1919.467773,340.353607 1920.368652,353.771332 1921.941895,367.001648 
	C1922.620972,372.712097 1923.094727,378.512054 1922.904663,384.246246 
	C1922.578125,394.089294 1922.092651,403.968109 1920.847778,413.726501 
	C1919.869629,421.393219 1911.578369,428.133972 1903.093994,428.114380 
	C1820.606079,427.924103 1738.117554,428.000000 1655.629272,428.000000 
	C1647.963745,428.000000 1640.282227,427.696594 1632.637695,428.097931 
	C1626.735596,428.407776 1621.286743,430.290558 1617.709595,435.673553 
	C1612.413818,443.643036 1612.515015,449.097137 1617.939331,457.578247 
	C1630.267212,476.853699 1647.904907,489.210876 1669.182983,496.569458 
	C1686.867432,502.685303 1705.357422,502.948242 1723.706787,501.804047 
	C1737.035034,500.972992 1750.277344,498.165039 1762.288574,491.874969 
	C1772.456543,486.550262 1781.168579,479.400635 1788.518066,470.304657 
	C1794.186157,463.289856 1804.575317,460.783173 1815.002197,467.604279 
	C1838.871704,483.219269 1862.675171,498.948975 1886.145142,515.153870 
	C1894.622437,521.007019 1896.180298,534.316162 1888.454102,542.888489 
	C1868.817505,564.675842 1845.842163,582.216064 1818.819580,593.937317 
	C1801.708008,601.359680 1784.085938,607.426941 1765.474365,609.996216 
	C1752.425903,611.797546 1739.360229,613.473877 1726.151123,615.603027 
	C1724.611084,616.000000 1723.222168,616.000000 1721.315308,615.644775 
	C1719.531616,615.526428 1718.265747,615.763245 1717.000000,616.000000 
	C1709.312378,616.000000 1701.624878,616.000000 1693.325928,615.609558 
	C1690.143188,615.479370 1687.571533,615.739685 1685.000000,616.000000 
	C1683.285645,616.000000 1681.571289,616.000000 1679.428467,616.000000 
M1754.499512,341.000000 
	C1759.660522,341.000000 1764.823608,341.090240 1769.982300,340.980988 
	C1780.350830,340.761444 1789.757202,329.110596 1785.253662,318.011902 
	C1778.815186,302.144592 1768.630249,288.903656 1754.412476,278.782349 
	C1737.787598,266.947357 1718.921265,262.848389 1699.184326,262.208069 
	C1691.160522,261.947784 1683.005493,263.676666 1675.008545,265.065735 
	C1658.556763,267.923370 1643.811890,275.017151 1632.136353,286.771545 
	C1624.701416,294.256561 1618.932983,303.513611 1613.048462,312.394348 
	C1604.326660,325.557190 1613.783813,341.604309 1629.640381,341.282013 
	C1670.911621,340.443207 1712.211426,341.000000 1754.499512,341.000000 
z"/>
<path fill="#000000" opacity="1.000000" stroke="none" 
	d="
M1.000000,45.468658 
	C2.136422,43.697857 3.519198,42.538155 4.368184,41.069820 
	C8.934134,33.172947 16.346638,30.160248 24.787210,30.093431 
	C54.943333,29.854717 85.107628,29.669441 115.258362,30.137852 
	C130.600143,30.376194 139.903076,38.872219 139.920166,55.132511 
	C140.061310,189.427155 140.090027,323.722137 139.856720,458.016541 
	C139.834106,471.036346 150.745407,481.121704 163.239609,481.086884 
	C229.553391,480.902039 295.867981,480.976166 362.182220,481.043274 
	C367.745789,481.048889 373.368622,481.269592 378.856812,482.099121 
	C385.632965,483.123383 393.170563,491.405304 393.954712,498.193268 
	C394.518036,503.069611 394.932220,507.992676 394.954529,512.896973 
	C395.057495,535.556702 395.191895,558.219482 394.909454,580.876160 
	C394.789459,590.501038 390.929169,598.551514 381.578827,602.675232 
	C378.561371,604.006042 375.067719,604.903198 371.790894,604.906311 
	C255.657669,605.018250 139.524307,605.020386 23.391008,604.959351 
	C14.532976,604.954712 8.017055,600.499390 3.500189,592.991333 
	C2.923458,592.032715 2.294934,591.105347 1.345208,590.081726 
	C1.000000,408.645782 1.000000,227.291550 1.000000,45.468658 
z"/>
<path fill="#000000" opacity="1.000000" stroke="none" 
	d="
M2106.531250,1.000000 
	C2111.830322,4.288328 2117.144287,7.154877 2118.228516,13.738370 
	C2118.515625,15.480919 2118.968262,17.233002 2118.968506,18.980789 
	C2119.001953,208.420929 2118.997314,397.861023 2119.007568,587.301147 
	C2119.008301,597.057251 2111.075684,604.856262 2101.854004,604.913391 
	C2067.032959,605.128906 2032.209717,605.046936 1997.387573,604.969055 
	C1987.967651,604.947998 1980.198486,596.968567 1980.001953,587.529541 
	C1979.988159,586.863403 1980.000000,586.196655 1980.000000,585.530212 
	C1980.000000,397.089783 1979.999878,208.649368 1980.000732,20.208952 
	C1980.000854,11.007831 1985.001831,3.784657 1992.896973,1.356845 
	C2030.687500,1.000000 2068.375000,1.000000 2106.531250,1.000000 
z"/>
<path fill="#076EFF" opacity="1.000000" stroke="none" 
	d="
M2637.043213,376.886475 
	C2640.717285,382.387054 2644.698975,387.709015 2648.013184,393.418518 
	C2664.085938,421.109009 2679.966553,448.910797 2695.942139,476.657867 
	C2704.040771,490.723846 2712.195557,504.757568 2720.662598,518.902954 
	C2721.000000,520.066711 2721.000000,521.133362 2721.000000,522.600037 
	C2708.555420,530.351746 2696.097656,537.681335 2683.669189,545.060303 
	C2661.996338,557.927795 2640.361328,570.859253 2618.671143,583.697388 
	C2607.619629,590.238708 2596.424561,596.540161 2585.429443,603.173523 
	C2583.070068,604.596863 2582.389160,603.725525 2581.351074,601.899719 
	C2576.610107,593.560486 2571.794434,585.263916 2566.991455,576.960083 
	C2556.245361,558.381104 2545.466553,539.820923 2534.747803,521.226196 
	C2526.464355,506.855621 2518.250977,492.444824 2510.009766,478.049866 
	C2508.962402,476.219757 2508.081055,474.276215 2506.877686,472.556732 
	C2500.191162,463.002350 2501.489258,452.858887 2504.205078,442.422913 
	C2508.616943,425.468018 2513.030273,408.502106 2516.805908,391.400299 
	C2517.864014,386.607239 2520.883789,384.938690 2524.303467,382.946289 
	C2528.229004,380.659149 2532.140869,378.348816 2536.439453,375.824677 
	C2538.314209,380.017059 2540.360596,384.033234 2541.855957,388.245087 
	C2542.370850,389.695526 2542.008545,391.923676 2541.203613,393.305420 
	C2531.493896,409.972595 2542.597412,431.831390 2561.782959,434.056244 
	C2577.781738,435.911560 2591.883789,424.312531 2592.783203,407.717926 
	C2593.399414,396.344421 2586.764893,386.260071 2574.006104,381.067047 
	C2572.669189,380.522919 2571.188721,380.332031 2569.336914,379.600159 
	C2567.941895,379.093201 2566.984619,378.963287 2566.027344,378.833374 
	C2565.856201,378.873260 2565.684814,378.913116 2565.249512,378.520386 
	C2564.015869,375.450775 2563.308105,372.677002 2562.016846,370.208221 
	C2559.978271,366.309998 2561.637451,364.018738 2565.114990,362.969879 
	C2567.354736,362.294312 2570.062744,362.155579 2572.323486,362.722870 
	C2591.760986,367.600555 2611.125244,372.770477 2630.573486,377.604065 
	C2632.501953,378.083313 2635.321777,380.622803 2637.043213,376.886475 
z"/>
<path fill="#FFFFFF" opacity="1.000000" stroke="none" 
	d="
M609.444153,616.000000 
	C611.571594,615.739746 614.143250,615.479492 616.857422,615.609619 
	C614.629456,616.000000 612.258850,616.000000 609.444153,616.000000 
z"/>
<path fill="#FFFFFF" opacity="1.000000" stroke="none" 
	d="
M1685.444092,616.000000 
	C1687.571533,615.739685 1690.143188,615.479370 1692.857422,615.609558 
	C1690.629395,616.000000 1688.258911,616.000000 1685.444092,616.000000 
z"/>
<path fill="#FFFFFF" opacity="1.000000" stroke="none" 
	d="
M1193.444092,616.000000 
	C1195.571533,615.739746 1198.143188,615.479431 1200.857422,615.609619 
	C1198.629395,616.000000 1196.258911,616.000000 1193.444092,616.000000 
z"/>
<path fill="#FFFFFF" opacity="1.000000" stroke="none" 
	d="
M641.399963,616.000000 
	C642.265625,615.763000 643.531311,615.526001 644.898438,615.644531 
	C643.933289,616.000000 642.866638,616.000000 641.399963,616.000000 
z"/>
<path fill="#FFFFFF" opacity="1.000000" stroke="none" 
	d="
M1717.400024,616.000000 
	C1718.265747,615.763245 1719.531616,615.526428 1720.898682,615.644775 
	C1719.933350,616.000000 1718.866699,616.000000 1717.400024,616.000000 
z"/>
<path fill="#000000" opacity="1.000000" stroke="none" 
	d="
M2273.000000,376.205505 
	C2272.269531,392.001953 2273.282471,407.198456 2278.420410,421.715515 
	C2283.664307,436.532135 2291.344727,449.985504 2301.501465,462.234772 
	C2315.520996,479.143036 2332.941650,491.432526 2352.085449,501.363098 
	C2363.208008,507.132843 2375.288818,510.509552 2387.939453,512.117615 
	C2421.359619,516.365967 2451.157471,507.131836 2478.548340,488.690613 
	C2484.081543,484.965271 2489.010986,480.237244 2493.788330,475.534241 
	C2496.754639,472.614136 2498.444092,472.095612 2500.650146,476.115875 
	C2505.751709,485.411682 2511.204590,494.514435 2516.306641,503.809845 
	C2521.320312,512.944336 2526.076904,522.219788 2531.388672,532.270081 
	C2521.668457,539.193604 2512.586914,547.042664 2502.286133,552.653503 
	C2489.110596,559.830261 2475.190918,565.830933 2461.146973,571.167542 
	C2448.278076,576.057617 2434.632568,578.397949 2420.784424,579.007690 
	C2414.197998,579.297668 2407.603271,580.099609 2401.032471,579.921509 
	C2378.345215,579.306641 2356.496094,574.689392 2335.397705,566.127991 
	C2316.417236,558.425903 2299.265381,547.736938 2283.061035,535.437744 
	C2278.090576,531.665100 2273.804688,526.989258 2269.213379,522.718689 
	C2265.213623,518.998291 2261.417236,519.019104 2257.689453,522.798645 
	C2253.954590,526.585571 2253.928223,530.314697 2257.850586,534.299194 
	C2271.174805,547.834045 2286.228027,559.065979 2302.786133,568.386536 
	C2324.928467,580.850281 2348.732422,587.941650 2373.686523,592.178223 
	C2389.585938,594.877563 2405.536377,595.878723 2421.442139,594.808167 
	C2449.078369,592.948242 2475.615723,585.993225 2499.619629,571.846985 
	C2512.234131,564.412720 2523.836182,555.238770 2535.735840,546.629700 
	C2538.337891,544.747253 2539.604492,544.179626 2541.276855,547.536987 
	C2543.341309,551.681824 2545.999512,555.530945 2548.350830,559.424255 
	C2475.195312,621.600830 2370.006836,628.213074 2291.340576,583.497498 
	C2190.305176,526.066833 2158.320557,418.307251 2180.496094,328.114807 
	C2206.756836,221.305298 2296.766113,163.409454 2378.256104,156.006317 
	C2442.211426,150.196198 2499.733398,166.599075 2549.115967,207.870560 
	C2598.394043,249.054703 2625.035645,302.524475 2630.791748,366.934326 
	C2618.998535,363.911499 2607.279541,360.969604 2595.596191,357.892151 
	C2587.231201,355.688751 2578.969238,353.060669 2570.544922,351.130951 
	C2567.567627,350.448883 2563.265869,352.543152 2561.347412,351.063599 
	C2559.319580,349.499725 2559.566162,345.135925 2558.553223,342.083405 
	C2550.824707,318.795044 2539.691162,297.393402 2523.974854,278.383270 
	C2506.016602,256.661224 2483.654053,241.603302 2457.287109,231.895844 
	C2437.430664,224.585419 2417.067871,220.989746 2396.029541,222.105530 
	C2378.516357,223.034348 2361.671143,227.393356 2345.443604,234.148132 
	C2330.151367,240.513641 2316.124023,249.112946 2303.335693,259.431946 
	C2287.333496,272.344757 2273.736084,287.610687 2262.956055,305.269592 
	C2253.240967,321.184418 2246.210449,338.201843 2242.382568,356.412415 
	C2240.879639,363.561707 2240.760010,371.000977 2239.998535,378.306915 
	C2238.147705,396.064453 2241.403564,413.182922 2247.038330,429.861359 
	C2253.916260,450.219818 2264.190186,468.785278 2278.505127,484.908783 
	C2285.208496,492.459167 2292.284668,499.693481 2299.451416,506.809753 
	C2302.096191,509.436005 2304.933594,512.212646 2309.659668,510.138672 
	C2314.692627,507.930237 2316.329102,502.916107 2312.396973,498.967590 
	C2307.622803,494.173523 2302.340088,489.881958 2297.612549,485.045563 
	C2281.195312,468.250183 2269.315674,448.659210 2261.762695,426.394257 
	C2255.898682,409.107635 2253.516602,391.254944 2255.179932,373.252838 
	C2258.007812,342.642395 2269.297119,315.202881 2289.057129,291.417908 
	C2307.991455,268.627075 2331.568359,252.675705 2359.478516,242.846313 
	C2377.073486,236.649750 2395.251221,234.608582 2413.583984,236.180939 
	C2438.331055,238.303452 2461.181152,246.738022 2482.381592,259.789093 
	C2494.100342,267.003326 2505.006836,275.430420 2513.240234,286.198456 
	C2521.389648,296.856659 2528.374023,308.698730 2534.093994,320.856720 
	C2544.114990,342.157104 2552.633057,364.160156 2562.123779,385.717834 
	C2564.231934,390.506104 2567.616211,394.772705 2570.684814,399.086029 
	C2573.482666,403.019318 2575.117188,407.183594 2572.662598,411.587738 
	C2570.694824,415.118652 2566.879395,417.244659 2563.035889,415.787903 
	C2560.014893,414.642944 2556.539795,412.132294 2555.279785,409.324585 
	C2547.605713,392.228241 2540.482666,374.883636 2533.224609,357.601379 
	C2524.732422,337.380524 2515.582764,317.543091 2501.764404,300.227264 
	C2488.883301,284.085327 2472.466064,273.089783 2453.676758,264.742493 
	C2433.287109,255.684219 2412.060303,252.207291 2390.257812,254.326538 
	C2377.926270,255.525223 2365.551514,259.015198 2353.843750,263.259094 
	C2336.336914,269.605103 2321.684814,280.839874 2309.069580,294.498657 
	C2292.195312,312.768738 2280.845947,333.991913 2276.011719,358.513916 
	C2274.885254,364.227356 2273.997803,369.988007 2273.000000,376.205505 
z"/>
<path fill="#076EFF" opacity="1.000000" stroke="none" 
	d="
M2636.849121,376.555847 
	C2635.321777,380.622803 2632.501953,378.083313 2630.573486,377.604065 
	C2611.125244,372.770477 2591.760986,367.600555 2572.323486,362.722870 
	C2570.062744,362.155579 2567.354736,362.294312 2565.114990,362.969879 
	C2561.637451,364.018738 2559.978271,366.309998 2562.016846,370.208221 
	C2563.308105,372.677002 2564.015869,375.450775 2564.992676,378.460571 
	C2564.019775,378.553467 2562.409180,378.540680 2562.159668,377.951324 
	C2560.209717,373.347382 2558.521240,368.632782 2556.992432,364.587738 
	C2565.142578,354.296631 2574.491455,360.198212 2583.080566,362.213348 
	C2601.045898,366.428314 2618.808838,371.503418 2636.849121,376.555847 
z"/>
<path fill="#076EFF" opacity="1.000000" stroke="none" 
	d="
M2566.328125,378.979431 
	C2566.984619,378.963287 2567.941895,379.093201 2568.949219,379.528259 
	C2568.209229,379.597412 2567.418945,379.361450 2566.328125,378.979431 
z"/>
<path fill="#FFFFFF" opacity="1.000000" stroke="none" 
	d="
M1093.977173,364.843903 
	C1096.852661,354.899139 1098.567383,344.843109 1102.869507,336.053467 
	C1107.639771,326.307465 1113.721802,316.733551 1121.110474,308.843140 
	C1133.979858,295.099823 1150.449097,286.363434 1169.084351,283.222504 
	C1180.201416,281.348694 1191.758911,280.548309 1202.992432,281.258453 
	C1220.476318,282.363647 1236.585083,288.655823 1250.667236,299.264587 
	C1263.088501,308.622223 1273.078857,320.227020 1279.979370,334.240051 
	C1285.993164,346.452362 1289.511963,359.361572 1291.122437,372.964233 
	C1293.372437,391.968109 1291.406128,410.339722 1284.988770,428.276947 
	C1280.769043,440.071838 1274.525513,450.615173 1266.405762,460.283356 
	C1254.992188,473.873474 1240.727173,483.023987 1224.137451,488.250824 
	C1198.724609,496.257416 1173.501221,495.014709 1149.056763,483.984070 
	C1119.410522,470.606079 1102.650146,446.913055 1094.976929,415.980957 
	C1091.771729,403.060394 1091.701538,389.928925 1092.083252,376.780273 
	C1092.194824,372.935669 1093.305054,369.120056 1093.977173,364.843903 
z"/>
<path fill="#FFFFFF" opacity="1.000000" stroke="none" 
	d="
M632.167236,491.998840 
	C621.872253,488.670807 611.579346,486.272980 602.278015,481.808990 
	C586.527100,474.249664 574.723511,461.992157 565.489502,447.111603 
	C557.978943,435.008270 553.214966,421.791138 551.257385,407.987213 
	C548.084534,385.614349 549.566223,363.463196 558.305298,342.101257 
	C563.544189,329.295319 570.826904,317.863159 580.487976,308.254547 
	C593.305542,295.506622 608.814941,286.682098 626.627380,283.117889 
	C657.005066,277.039307 685.702698,281.684570 710.786560,300.535858 
	C729.738525,314.778839 740.432495,334.813568 745.978455,357.643921 
	C749.270264,371.194885 750.003601,385.085754 748.823486,398.832123 
	C746.973755,420.379456 740.256836,440.536713 726.632935,457.671326 
	C712.425171,475.540344 693.815613,486.918304 671.293335,490.811096 
	C660.994629,492.591125 650.348022,492.420898 639.849365,492.933746 
	C637.458923,493.050476 635.027710,492.333252 632.167236,491.998840 
z"/>
<path fill="#FFFFFF" opacity="1.000000" stroke="none" 
	d="
M1753.999634,341.000000 
	C1712.211426,341.000000 1670.911621,340.443207 1629.640381,341.282013 
	C1613.783813,341.604309 1604.326660,325.557190 1613.048462,312.394348 
	C1618.932983,303.513611 1624.701416,294.256561 1632.136353,286.771545 
	C1643.811890,275.017151 1658.556763,267.923370 1675.008545,265.065735 
	C1683.005493,263.676666 1691.160522,261.947784 1699.184326,262.208069 
	C1718.921265,262.848389 1737.787598,266.947357 1754.412476,278.782349 
	C1768.630249,288.903656 1778.815186,302.144592 1785.253662,318.011902 
	C1789.757202,329.110596 1780.350830,340.761444 1769.982300,340.980988 
	C1764.823608,341.090240 1759.660522,341.000000 1753.999634,341.000000 
z"/>
</svg>