<svg xmlns="http://www.w3.org/2000/svg" xmlns:xlink="http://www.w3.org/1999/xlink" fill="none" version="1.1" width="16" height="16" viewBox="0 0 16 16"><defs><clipPath id="master_svg0_211_3770"><rect x="0" y="0" width="16" height="16" rx="0"/></clipPath></defs><g clip-path="url(#master_svg0_211_3770)"><g><path d="M10.9,3L10.9,4.5Q10.9,4.559089999999999,10.91153,4.61705Q10.92306,4.67501,10.94567,4.72961Q10.96828,4.78421,11.00112,4.83334Q11.03395,4.88248,11.07574,4.92426Q11.11752,4.96605,11.16666,4.99888Q11.21579,5.03171,11.27039,5.05433Q11.32499,5.0769400000000005,11.38295,5.08847Q11.44091,5.1,11.5,5.1Q11.5591,5.1,11.6171,5.08847Q11.675,5.0769400000000005,11.7296,5.05433Q11.7842,5.03171,11.8333,4.99888Q11.8825,4.96605,11.9243,4.92426Q11.9661,4.88248,11.9989,4.83334Q12.0317,4.78421,12.0543,4.72961Q12.0769,4.67501,12.0885,4.61705Q12.1,4.559089999999999,12.1,4.5L12.1,4.49893L12.1,3Q12.1,2.337258,11.6314,1.86863Q11.16274,1.4,10.5,1.4L2.5,1.4Q1.837258,1.4,1.368629,1.868629Q0.9,2.337258,0.9,3L0.9,13Q0.9,13.6627,1.368629,14.1314Q1.837258,14.6,2.5,14.6L10.5,14.6Q11.16274,14.6,11.6314,14.1314Q12.1,13.6627,12.1,13L12.1,12Q12.1,11.94091,12.0885,11.88295Q12.0769,11.82499,12.0543,11.77039Q12.0317,11.71579,11.9989,11.66666Q11.9661,11.61752,11.9243,11.57573Q11.8825,11.53395,11.8333,11.50112Q11.7842,11.46828,11.7296,11.44567Q11.675,11.42306,11.6171,11.41153Q11.5591,11.4,11.5,11.4Q11.44091,11.4,11.38295,11.41153Q11.32499,11.42306,11.27039,11.44567Q11.21579,11.46829,11.16666,11.50112Q11.11752,11.53395,11.07573,11.57574Q11.03395,11.61752,11.00112,11.66666Q10.96828,11.71579,10.94567,11.77039Q10.92306,11.82499,10.91153,11.88295Q10.9,11.94091,10.9,12L10.9,13Q10.9,13.4,10.5,13.4L2.5,13.4Q2.1,13.4,2.1,13L2.1,3Q2.1,2.834315,2.2171570000000003,2.7171570000000003Q2.334315,2.6,2.5,2.6L10.5,2.6Q10.66569,2.6,10.78284,2.7171570000000003Q10.9,2.834314,10.9,3Z" fill-rule="evenodd" fill="#EEEEEE" fill-opacity="1"/></g><g><path d="M9,7.4L14,7.4Q14.059090000000001,7.4,14.117049999999999,7.411529Q14.17501,7.423058,14.229610000000001,7.445672Q14.28421,7.468287,14.33334,7.501118Q14.382480000000001,7.53395,14.42426,7.575736Q14.46605,7.617522,14.49888,7.666658Q14.53171,7.715793,14.55433,7.77039Q14.57694,7.824986,14.588470000000001,7.882946Q14.6,7.9409051999999996,14.6,8Q14.6,8.0590948,14.588470000000001,8.117054Q14.57694,8.175014000000001,14.55433,8.22961Q14.53171,8.284207,14.49888,8.333342Q14.46605,8.382478,14.42426,8.424264Q14.382480000000001,8.46605,14.33334,8.498882Q14.28421,8.531713,14.229610000000001,8.554328Q14.17501,8.576942,14.117049999999999,8.588471Q14.059090000000001,8.6,14,8.6L9,8.6Q8.9409052,8.6,8.882946,8.588471Q8.824985999999999,8.576942,8.77039,8.554328Q8.715793,8.531713,8.666658,8.498882Q8.617522,8.46605,8.575736,8.424264Q8.53395,8.382478,8.501118,8.333342Q8.468287,8.284207,8.445672,8.22961Q8.423058,8.175014000000001,8.411529,8.117054Q8.4,8.0590948,8.4,8Q8.4,7.9409051999999996,8.411529,7.882946Q8.423058,7.824986,8.445672,7.77039Q8.468287,7.715793,8.501118,7.666658Q8.53395,7.617522,8.575736,7.575736Q8.617522,7.53395,8.666658,7.501118Q8.715793,7.468287,8.77039,7.445672Q8.824985999999999,7.423058,8.882946,7.411529Q8.9409052,7.4,9,7.4Z" fill-rule="evenodd" fill="#EEEEEE" fill-opacity="1"/></g><g><path d="M13.05962290625,5.729651024261474L15.01752390625,7.687630024261475Q15.05931390625,7.729420024261475,15.09214390625,7.778550024261475Q15.12497390625,7.827690024261475,15.14758390625,7.882280024261474Q15.17019390625,7.936880024261475,15.18172390625,7.9948400242614746Q15.19325390625,8.052790024261474,15.19325390625,8.111890024261475Q15.19325390625,8.170980024261475,15.18172390625,8.228940024261474Q15.17019390625,8.286900024261474,15.14758390625,8.341490024261475Q15.12497390625,8.396090024261476,15.09214390625,8.445220024261474Q15.05931390625,8.494360024261475,15.01753390625,8.536140024261474L13.05972090625,10.494060024261476L13.05952990625,10.494250024261476Q12.97513790625,10.578650024261474,12.86487190625,10.624320024261475Q12.75460590625,10.670000024261475,12.63525390625,10.670000024261475Q12.57615910625,10.670000024261475,12.51819990625,10.658470024261476Q12.460239906249999,10.646940024261475,12.40564390625,10.624330024261475Q12.35104690625,10.601710024261475,12.30191190625,10.568880024261475Q12.25277590625,10.536050024261474,12.21098990625,10.494260024261475Q12.16920390625,10.452480024261476,12.13637190625,10.403340024261475Q12.10354090625,10.354210024261475,12.08092590625,10.299610024261476Q12.05831190625,10.245010024261475,12.04678290625,10.187050024261474Q12.03525390625,10.129090024261474,12.03525390625,10.070000024261475Q12.03525390625,9.950660024261474,12.08092290625,9.840400024261474Q12.12659190625,9.730140024261475,12.21097790625,9.645750024261474L12.21116890625,9.645560024261474L13.744743906250001,8.111890024261475L12.21107690625,6.578161024261474L12.21098090625,6.578065024261474Q12.12659390625,6.493675024261474,12.08092390625,6.383414024261475Q12.03525390625,6.2731540242614745,12.03525390625,6.153810024261475Q12.03525390625,6.094715224261474,12.04678290625,6.036756024261474Q12.05831190625,5.978796024261475,12.08092590625,5.9242000242614745Q12.10354090625,5.869603024261474,12.13637190625,5.820468024261475Q12.16920390625,5.771332024261475,12.21098990625,5.729546024261475Q12.25277590625,5.6877600242614745,12.30191190625,5.654928024261475Q12.35104690625,5.622097024261475,12.40564390625,5.599482024261475Q12.460239906249999,5.576868024261475,12.51819990625,5.565339024261474Q12.57615910625,5.553810024261475,12.63525390625,5.553810024261475Q12.75460490625,5.553810024261475,12.86486990625,5.599485024261474Q12.97513490625,5.645159024261474,13.05952690625,5.729555024261475L13.05962290625,5.729651024261474Z" fill-rule="evenodd" fill="#EEEEEE" fill-opacity="1"/></g></g></svg>