<svg xmlns="http://www.w3.org/2000/svg" xmlns:xlink="http://www.w3.org/1999/xlink" fill="none" version="1.1" width="16" height="16" viewBox="0 0 16 16"><defs><clipPath id="master_svg0_211_3776"><rect x="0" y="0" width="16" height="16" rx="0"/></clipPath></defs><g clip-path="url(#master_svg0_211_3776)"><g><path d="M5.66650390625,4.06650390625L9.66650390625,4.06650390625Q9.725593906250001,4.06650390625,9.783553906249999,4.07803290625Q9.84151390625,4.08956190625,9.896113906250001,4.11217590625Q9.95071390625,4.13479090625,9.99984390625,4.16762190625Q10.048983906250001,4.20045390625,10.09076390625,4.24223990625Q10.13255390625,4.28402590625,10.16538390625,4.33316190625Q10.19821390625,4.38229690625,10.22083390625,4.43689390625Q10.24344390625,4.49148990625,10.254973906250001,4.54944990625Q10.26650390625,4.6074091062499996,10.26650390625,4.66650390625Q10.26650390625,4.7255987062500004,10.254973906250001,4.78355790625Q10.24344390625,4.84151790625,10.22083390625,4.89611390625Q10.19821390625,4.95071090625,10.16538390625,4.99984590625Q10.13255390625,5.04898190625,10.09076390625,5.09076790625Q10.048983906250001,5.13255390625,9.99984390625,5.16538590625Q9.95071390625,5.19821690625,9.896113906250001,5.22083190625Q9.84151390625,5.24344590625,9.783553906249999,5.25497490625Q9.725593906250001,5.26650390625,9.66650390625,5.26650390625L5.66650390625,5.26650390625Q5.6074091062499996,5.26650390625,5.54944990625,5.25497490625Q5.49148990625,5.24344590625,5.43689390625,5.22083190625Q5.38229690625,5.19821690625,5.33316190625,5.16538590625Q5.28402590625,5.13255390625,5.24223990625,5.09076790625Q5.20045390625,5.04898190625,5.16762190625,4.99984590625Q5.13479090625,4.95071090625,5.11217590625,4.89611390625Q5.08956190625,4.84151790625,5.07803290625,4.78355790625Q5.06650390625,4.7255987062500004,5.06650390625,4.66650390625Q5.06650390625,4.6074091062499996,5.07803290625,4.54944990625Q5.08956190625,4.49148990625,5.11217590625,4.43689390625Q5.13479090625,4.38229690625,5.16762190625,4.33316190625Q5.20045390625,4.28402590625,5.24223990625,4.24223990625Q5.28402590625,4.20045390625,5.33316190625,4.16762190625Q5.38229690625,4.13479090625,5.43689390625,4.11217590625Q5.49148990625,4.08956190625,5.54944990625,4.07803290625Q5.6074091062499996,4.06650390625,5.66650390625,4.06650390625Z" fill-rule="evenodd" fill="#BDBDBD" fill-opacity="1"/></g><g><path d="M7.06650390625,5Q7.06650390625,4.9409051999999996,7.07803290625,4.882946Q7.08956190625,4.824986,7.11217590625,4.77039Q7.13479090625,4.715793,7.16762190625,4.666658Q7.20045390625,4.617522,7.24223990625,4.575736Q7.28402590625,4.53395,7.33316190625,4.501118Q7.38229690625,4.468287,7.43689390625,4.445672Q7.49148990625,4.423058,7.54944990625,4.411529Q7.6074091062499996,4.4,7.66650390625,4.4Q7.7255987062500004,4.4,7.78355790625,4.411529Q7.84151790625,4.423058,7.89611390625,4.445672Q7.95071090625,4.468287,7.99984590625,4.501118Q8.04898190625,4.53395,8.09076790625,4.575736Q8.13255390625,4.617522,8.16538590625,4.666658Q8.19821690625,4.715793,8.22083190625,4.77039Q8.24344590625,4.824986,8.25497490625,4.882946Q8.26650390625,4.9409051999999996,8.26650390625,5L8.26650390625,9.3Q8.26650390625,9.35909,8.25497490625,9.41705Q8.24344590625,9.475010000000001,8.22083190625,9.52961Q8.19821690625,9.584209999999999,8.16538590625,9.63334Q8.13255390625,9.68248,8.09076790625,9.724260000000001Q8.04898190625,9.76605,7.99984590625,9.79888Q7.95071090625,9.831710000000001,7.89611390625,9.854330000000001Q7.84151790625,9.876940000000001,7.78355790625,9.88847Q7.7255987062500004,9.9,7.66650390625,9.9Q7.6074091062499996,9.9,7.54944990625,9.88847Q7.49148990625,9.876940000000001,7.43689390625,9.854330000000001Q7.38229690625,9.831710000000001,7.33316190625,9.79888Q7.28402590625,9.76605,7.24223990625,9.724260000000001Q7.20045390625,9.68248,7.16762190625,9.63334Q7.13479090625,9.584209999999999,7.11217590625,9.52961Q7.08956190625,9.475010000000001,7.07803290625,9.41705Q7.06650390625,9.35909,7.06650390625,9.3L7.06650390625,5Z" fill-rule="evenodd" fill="#BDBDBD" fill-opacity="1"/></g><g><path d="M13.4,2.31515290625L13.4,5.46651390625Q13.4,5.525613906249999,13.4115,5.58356390625Q13.4231,5.641523906250001,13.4457,5.69612390625Q13.4683,5.75072390625,13.5011,5.79985390625Q13.5339,5.84899390625,13.5757,5.89077390625Q13.6175,5.93256390625,13.6667,5.96539390625Q13.7158,5.99822390625,13.7704,6.02084390625Q13.825,6.04345390625,13.8829,6.05498390625Q13.9409,6.06651390625,14,6.06651390625Q14.0591,6.06651390625,14.1171,6.05498390625Q14.175,6.04345390625,14.2296,6.02084390625Q14.2842,5.99822390625,14.3333,5.96539390625Q14.3825,5.93256390625,14.4243,5.89077390625Q14.466,5.84899390625,14.4989,5.79985390625Q14.5317,5.75072390625,14.5543,5.69612390625Q14.5769,5.641523906250001,14.5885,5.58356390625Q14.6,5.525613906249999,14.6,5.46651390625L14.6,5.46544390625L14.6,2.31515290625Q14.6,1.79311590625,14.2232,1.42645590625Q13.8532,1.06650390625,13.3333,1.06650390625L2.666667,1.06650390625Q2.146797,1.06650390625,1.776849,1.42645290625Q1.4,1.79311690625,1.4,2.31515290625L1.4,13.01790390625Q1.4,13.53990390625,1.776851,13.90660390625Q2.146796,14.26650390625,2.666667,14.26650390625L6.7143,14.26650390625Q6.7734,14.26650390625,6.83135,14.25500390625Q6.88931,14.24340390625,6.94391,14.22080390625Q6.99851,14.19820390625,7.04764,14.16540390625Q7.09678,14.13250390625,7.13856,14.09080390625Q7.18035,14.04900390625,7.21318,13.99980390625Q7.24601,13.95070390625,7.26863,13.89610390625Q7.29124,13.84150390625,7.30277,13.78360390625Q7.3143,13.72560390625,7.3143,13.66650390625Q7.3143,13.60740390625,7.30277,13.54940390625Q7.29124,13.49150390625,7.26863,13.43690390625Q7.24601,13.38230390625,7.21318,13.33320390625Q7.18035,13.28400390625,7.13856,13.24220390625Q7.09678,13.20040390625,7.04764,13.16760390625Q6.99851,13.13480390625,6.94391,13.11220390625Q6.88931,13.08960390625,6.83135,13.07800390625Q6.7734,13.06650390625,6.7143,13.06650390625L2.666667,13.06650390625Q2.6,13.06650390625,2.6,13.01790390625L2.6,2.31515290625Q2.6,2.26650390625,2.666667,2.26650390625L13.3333,2.26650390625Q13.3658,2.26650390625,13.3863,2.28652190625Q13.4,2.29982490625,13.4,2.31515290625Z" fill-rule="evenodd" fill="#BDBDBD" fill-opacity="1"/></g><g><path d="M9.4,12.83333L9.4,14.16667Q9.4,14.225760000000001,9.411529,14.283719999999999Q9.423058,14.34168,9.445672,14.39628Q9.468287,14.45087,9.501118,14.50001Q9.53395,14.549140000000001,9.575736,14.59093Q9.617522,14.632719999999999,9.666658,14.66555Q9.715793,14.69838,9.77039,14.72099Q9.824985999999999,14.74361,9.882946,14.75514Q9.9409052,14.766670000000001,10,14.766670000000001L11.33333,14.766670000000001Q11.40401,14.766670000000001,11.47275,14.75024Q11.5415,14.73382,11.60454,14.70187Q11.66759,14.66993,11.72148,14.6242Q11.77538,14.578479999999999,11.81718,14.52149L15.48384,9.52148Q15.51816,9.47469,15.54287,9.4222Q15.56758,9.3697,15.581769999999999,9.31344Q15.595970000000001,9.25718,15.59912,9.19924Q15.60227,9.1413,15.594249999999999,9.08383Q15.58624,9.02636,15.56737,8.971495Q15.5485,8.916627,15.519459999999999,8.866392Q15.49042,8.816157,15.45229,8.772418Q15.41417,8.728679,15.36836,8.693055L13.86836,7.526389Q13.860240000000001,7.520071,13.85191,7.514035Q13.75524,7.444036,13.63915,7.416358Q13.52305,7.38868,13.40521,7.407536Q13.28736,7.426391,13.185690000000001,7.48891Q13.08403,7.55143,13.01403,7.648094L9.514035,12.48143Q9.4,12.6389,9.4,12.83333ZM10.6,13.56667L11.02929,13.56667L14.171240000000001,9.28219L13.621780000000001,8.854833L10.6,13.02776L10.6,13.56667Z" fill-rule="evenodd" fill="#BDBDBD" fill-opacity="1"/></g></g></svg>