<svg xmlns="http://www.w3.org/2000/svg" xmlns:xlink="http://www.w3.org/1999/xlink" fill="none" version="1.1" width="253" height="51" viewBox="0 0 253 51"><defs><filter id="master_svg0_211_19161" filterUnits="objectBoundingBox" color-interpolation-filters="sRGB" x="0" y="0" width="253" height="51"><feFlood flood-opacity="0" result="BackgroundImageFix"/><feColorMatrix in="SourceAlpha" type="matrix" values="0 0 0 0 0 0 0 0 0 0 0 0 0 0 0 0 0 0 127 0"/><feOffset dy="3" dx="0"/><feGaussianBlur stdDeviation="0"/><feColorMatrix type="matrix" values="0 0 0 0 0.065476194024086 0 0 0 0 0.008691529743373394 0 0 0 0 0.008691529743373394 0 0 0 0.7400000095367432 0"/><feBlend mode="normal" in2="BackgroundImageFix" result="effect1_dropShadow"/><feBlend mode="normal" in="SourceGraphic" in2="effect1_dropShadow" result="shape"/></filter><linearGradient x1="-15.048326030373573" y1="20.999998569488525" x2="284.97769045829773" y2="59.333330154418945" gradientUnits="userSpaceOnUse" id="master_svg1_75_3289"><stop offset="3.57142873108387%" stop-color="#F06123" stop-opacity="1"/><stop offset="46.50000035762787%" stop-color="#BEB1FC" stop-opacity="1"/><stop offset="100%" stop-color="#F06123" stop-opacity="1"/></linearGradient></defs><g filter="url(#master_svg0_211_19161)"><path d="M10.6,39.84Q10.6,27.68,10.48,24.52Q10.92,25.96,14.52,35L20.64,35Q22.2,30.76,23.04,28.56Q24.48,24.6,24.52,24.48Q24.36,29.92,24.36,39.84L33.28,39.84L33.28,16.2L20.52,16.2Q18.68,21.8,17.6,27Q17.36,25.88,16.54,22.9Q15.72,19.92,14.48,16.2L1.64,16.2L1.64,39.84L10.6,39.84ZM54.16,40.16Q56.92,40.16,58.48,39.52L58.48,34.32Q58.08,34.56,57.32,34.56Q56.56,34.56,56.28,33.96Q56.04,33.52,56.04,32.2L56.08,30.96L56.08,29.44Q56.08,27.68,55.6,26.68Q55.04,25.64,54.08,24.96Q51.72,23.44,46.88,23.44Q44.48,23.44,42.16,23.88Q39.44,24.52,38.12,25.24L38.12,30.6L38.24,30.6Q41.2,28.84,45.08,28.84Q46.76,28.84,47.4,29.36Q47.88,29.64,47.88,30.44L47.88,30.72Q46.28,30.44,45.56,30.44Q42.64,30.44,40.6,30.92Q38.64,31.44,37.56,32.4Q36.28,33.44,36.28,35.28Q36.28,37.8,38.2,39Q40.08,40.2,43.36,40.2Q45.04,40.2,46.36,39.76Q48.08,39.16,48.8,38.36Q49.12,38.76,49.62,39.06Q50.12,39.36,51,39.68Q52.32,40.16,54.16,40.16ZM47.88,33.96Q47.88,34.56,47.92,34.94Q47.96,35.32,47.96,35.52Q47.32,36.24,45.96,36.24Q44.12,36.24,44.12,35.08Q44.12,34.28,45.2,34Q46.2,33.8,46.76,33.8Q47.72,33.8,47.88,33.96ZM69.6,40.08Q72.68,40.08,74.16,39.2L74.16,33.84L73.96,33.84Q73.4,34.2,72.2,34.2Q71.32,34.2,70.8,33.68Q70.48,33.2,70.48,32L70.48,27.64L73.56,27.64L73.56,22.88L70.48,22.88L70.48,18L63.64,18Q63.64,19.84,63.56,21.26Q63.48,22.68,63.48,22.88L61.28,22.88L61.28,27.64L63.36,27.64L63.36,33.88Q63.36,35.44,63.68,36.52Q64,37.6,64.72,38.36Q66.2,40.08,69.6,40.08ZM88.56,40.96Q93.96,40.96,97.24,39.2L97.24,33.6L97.08,33.6Q94.16,35.12,90.12,35.12Q87.84,35.12,86.88,34.68Q85.68,34.32,85.28,33.04L98.16,33.04Q98.32,32.08,98.32,30.84Q98.24,26.64,95.56,24.56Q92.96,22.52,88.24,22.52Q83.04,22.52,80.08,24.96Q76.96,27.24,76.96,31.8Q76.96,36.32,79.96,38.6Q82.88,40.96,88.56,40.96ZM90.96,29.68L85.28,29.68Q85.92,27.56,88.36,27.56Q89.56,27.56,90.2,28.08Q90.96,28.64,90.96,29.48L90.96,29.68ZM124.44,40.12Q127.84,39.36,129.44,38.4L129.44,25.96L116.6,25.96L116.6,32L120.48,32L120.48,33.24Q120.04,33.56,118.56,33.56Q115.36,33.56,113.36,32.28Q111.24,30.92,111.24,28.08Q111.24,25.44,113.14,24.1Q115.04,22.76,118.72,22.76Q121.32,22.76,123.8,23.44Q126.68,24.2,127.92,25.2L128.08,25.2L128.08,17.4Q126.44,16.32,123.92,15.8Q121.08,15.16,117.4,15.16Q113.12,15.16,109.4,16.64Q105.96,17.88,103.52,20.92Q101.32,23.96,101.32,27.96Q101.32,34.04,105.8,37.48Q110.16,40.88,117.16,40.88Q121.12,40.88,124.44,40.12ZM144.04,40.96Q149.44,40.96,152.72,39.2L152.72,33.6L152.56,33.6Q149.64,35.12,145.6,35.12Q143.32,35.12,142.36,34.68Q141.16,34.32,140.76,33.04L153.64,33.04Q153.8,32.08,153.8,30.84Q153.72,26.64,151.04,24.56Q148.44,22.52,143.72,22.52Q138.52,22.52,135.56,24.96Q132.44,27.24,132.44,31.8Q132.44,36.32,135.44,38.6Q138.36,40.96,144.04,40.96ZM146.44,29.68L140.76,29.68Q141.4,27.56,143.84,27.56Q145.04,27.56,145.68,28.08Q146.44,28.64,146.44,29.48L146.44,29.68ZM164.92,40L164.92,29.96Q165.68,28.6,167.48,28.6Q168.68,28.6,169.28,29.44Q169.48,29.64,169.48,31.08L169.48,40L177.88,40L177.88,29.32Q177.88,27.2,177.44,26.16Q176.28,23.04,170.96,23.04Q169,23.04,167.28,23.72Q165.56,24.48,164.68,25.84L164.68,23.36L156.6,23.36L156.6,40L164.92,40ZM203.16,39.84L205.28,35.36L213.16,35.36L215.32,39.84L225.76,39.84L214.12,16.2L204.48,16.2L192.88,39.84L203.16,39.84ZM207.52,28.76Q208,27.56,208.12,27.2Q209,25.16,209.04,24.88Q209.36,25.8,210.76,28.76L207.52,28.76ZM234.88,21.64Q235.84,20.72,235.84,19.4Q235.84,17.88,234.76,17.24Q233.76,16.44,232.32,16.44Q231,16.44,229.88,17.24Q228.8,17.92,228.8,19.4Q228.8,20.76,229.8,21.64Q230.8,22.4,232.32,22.4Q233.96,22.4,234.88,21.64ZM235.88,40L235.88,23.44L228.76,23.44L228.76,40L235.88,40ZM245.68,40.08L245.68,31.12Q245.84,30.04,246.66,29.48Q247.48,28.92,248.92,28.92Q250.44,28.92,251.44,29.48L251.56,29.48L251.56,23.48Q251,23.08,249.52,23.08Q247.88,23.08,246.84,24Q245.84,24.92,245.44,26.12L245.44,23.44L238.68,23.44L238.68,40.08L245.68,40.08Z" fill="url(#master_svg1_75_3289)" fill-opacity="1"/></g></svg>