<svg xmlns="http://www.w3.org/2000/svg" xmlns:xlink="http://www.w3.org/1999/xlink" fill="none" version="1.1" width="32" height="32" viewBox="0 0 32 32"><defs><linearGradient x1="-0.12584161758422852" y1="0.5" x2="1.1620374917984009" y2="0.5" id="master_svg0_195_02528"><stop offset="2.142857201397419%" stop-color="#E47557" stop-opacity="1"/><stop offset="100%" stop-color="#C4A9E5" stop-opacity="1"/></linearGradient></defs><g><g></g><g><path d="M5.62521,26.737Q5.75065,28,6.8,28Q7.6315100000000005,28,12.15456,25.173Q14.43415,25.6842,16,25.6842Q21.133,25.6842,24.7819,22.5613Q28.5,19.3792,28.5,14.8421Q28.5,10.30498,24.7819,7.12294Q21.1329,4,16,4Q10.867049999999999,4,7.21805,7.12294Q3.5,10.30498,3.5,14.8421Q3.5,17.7626,6.30622,21.4629Q5.79819,24.074,5.66115,25.4538Q5.57945,26.2763,5.62521,26.737ZM7.65932,25.5734Q8.80485,24.9187,11.44239,23.2589L11.79769,23.0353L12.20612,23.1323Q14.5293,23.6842,16,23.6842Q20.394,23.6842,23.4815,21.0418Q26.5,18.458399999999997,26.5,14.8421Q26.5,11.225760000000001,23.4815,8.642430000000001Q20.394,5.999999,16,5.999999Q11.60604,6,8.51849,8.642430000000001Q5.5,11.225760000000001,5.5,14.8421Q5.5,17.2134,8.16062,20.5918L8.44557,20.9536L8.35584,21.4054Q7.8058499999999995,24.1742,7.65932,25.5734Z" fill-rule="evenodd" fill="#E27963" fill-opacity="1"/></g><g><path d="M13,12L20,12Q20.098489999999998,12,20.19509,12.019214999999999Q20.29169,12.03843,20.38268,12.076121Q20.47368,12.113812,20.55557,12.16853Q20.63746,12.223249,20.70711,12.292893Q20.77675,12.362537,20.83147,12.44443Q20.88619,12.526322,20.92388,12.617317Q20.961570000000002,12.708311,20.98078,12.80491Q21,12.9015086,21,13Q21,13.0984914,20.98078,13.19509Q20.961570000000002,13.291689,20.92388,13.382683Q20.88619,13.473678,20.83147,13.55557Q20.77675,13.637463,20.70711,13.707107Q20.63746,13.776751,20.55557,13.83147Q20.47368,13.886188,20.38268,13.923879Q20.29169,13.96157,20.19509,13.980785000000001Q20.098489999999998,14,20,14L13,14Q12.9015086,14,12.80491,13.980785000000001Q12.708311,13.96157,12.617317,13.923879Q12.526322,13.886188,12.44443,13.83147Q12.362537,13.776751,12.292893,13.707107Q12.223249,13.637463,12.16853,13.55557Q12.113812,13.473678,12.076121,13.382683Q12.03843,13.291689,12.019214999999999,13.19509Q12,13.0984914,12,13Q12,12.9015086,12.019214999999999,12.80491Q12.03843,12.708311,12.076121,12.617317Q12.113812,12.526322,12.16853,12.44443Q12.223249,12.362537,12.292893,12.292893Q12.362537,12.223249,12.44443,12.16853Q12.526322,12.113812,12.617317,12.076121Q12.708311,12.03843,12.80491,12.019214999999999Q12.9015086,12,13,12Z" fill-rule="evenodd" fill="#BFB1FA" fill-opacity="1"/></g><g><path d="M14,17L19,17Q19.098489999999998,17,19.19509,17.019215Q19.29169,17.038429999999998,19.38268,17.076121Q19.47368,17.113812,19.55557,17.16853Q19.63746,17.223249,19.70711,17.292893Q19.77675,17.362537,19.83147,17.44443Q19.88619,17.526322,19.92388,17.617317Q19.961570000000002,17.708311,19.98078,17.80491Q20,17.9015086,20,18Q20,18.0984914,19.98078,18.19509Q19.961570000000002,18.291689,19.92388,18.382683Q19.88619,18.473678,19.83147,18.55557Q19.77675,18.637463,19.70711,18.707107Q19.63746,18.776751,19.55557,18.83147Q19.47368,18.886188,19.38268,18.923879Q19.29169,18.961570000000002,19.19509,18.980785Q19.098489999999998,19,19,19L14,19Q13.9015086,19,13.80491,18.980785Q13.708311,18.961570000000002,13.617317,18.923879Q13.526322,18.886188,13.44443,18.83147Q13.362537,18.776751,13.292893,18.707107Q13.223249,18.637463,13.16853,18.55557Q13.113812,18.473678,13.076121,18.382683Q13.03843,18.291689,13.019214999999999,18.19509Q13,18.0984914,13,18Q13,17.9015086,13.019214999999999,17.80491Q13.03843,17.708311,13.076121,17.617317Q13.113812,17.526322,13.16853,17.44443Q13.223249,17.362537,13.292893,17.292893Q13.362537,17.223249,13.44443,17.16853Q13.526322,17.113812,13.617317,17.076121Q13.708311,17.038429999999998,13.80491,17.019215Q13.9015086,17,14,17Z" fill-rule="evenodd" fill="url(#master_svg0_195_02528)" fill-opacity="1"/></g></g></svg>