<svg width="680" height="154" viewBox="0 0 680 154" fill="none" xmlns="http://www.w3.org/2000/svg">
<g clip-path="url(#clip0_283_429)">
<path d="M98.18 125.63V145.2C98.18 148.28 95.68 150.78 92.6 150.78H5.58C2.5 150.78 0 148.28 0 145.2V13.01C0 9.92999 2.5 7.42999 5.58 7.42999H28.86C31.94 7.42999 34.44 9.92999 34.44 13.01V114.46C34.44 117.54 36.94 120.04 40.02 120.04H92.59C95.67 120.04 98.17 122.54 98.17 125.62L98.18 125.63Z" fill="white"/>
<path d="M220.08 45.1V147.74C220.08 149.41 218.72 150.77 217.05 150.77H191.34C189.67 150.77 188.31 149.41 188.31 147.74V147.64C188.31 145.11 185.42 143.74 183.41 145.27C176.43 150.55 167.69 153.46 156.96 153.46C125.4 153.46 102.71 129.12 102.71 96.53C102.71 63.94 125.4 41.66 156.96 41.66C167.72 41.66 176.49 44.32 183.48 49.32C185.5 50.77 188.31 49.38 188.31 46.89V45.1C188.31 43.43 189.67 42.07 191.34 42.07H217.05C218.72 42.07 220.08 43.43 220.08 45.1ZM187.08 96.53C187.08 80.65 176.97 69.72 161.92 69.72C146.87 69.72 136.96 81.06 136.96 96.53C136.96 112 147.27 123.14 161.92 123.14C176.57 123.14 187.08 112.21 187.08 96.53Z" fill="white"/>
<path d="M356.84 96.53C356.84 129.12 334.36 153.46 302.8 153.46C292.25 153.46 283.33 150.6 276.15 145.44C274.18 144.03 271.45 145.39 271.45 147.82C271.45 149.45 270.13 150.78 268.49 150.78H242.64C241.01 150.78 239.68 149.46 239.68 147.82V2.96C239.68 1.33 241 0 242.64 0H271.17C272.8 0 274.13 1.32 274.13 2.96V43.89C274.13 46.21 276.69 47.64 278.65 46.39C285.66 41.94 294.03 39.6 303.63 39.6C334.98 39.6 356.85 63.94 356.85 96.53H356.84ZM322.81 96.53C322.81 81.06 312.29 69.72 297.85 69.72C282.59 69.72 272.48 80.65 272.48 96.53C272.48 112.41 282.79 123.14 297.85 123.14C312.91 123.14 322.81 112 322.81 96.53Z" fill="white"/>
<path d="M426.77 125.41C436.87 125.41 442.7 122.57 446.87 117.48C448.38 115.64 451.03 115.25 453.01 116.56L470.73 128.32C473.1 129.89 473.51 133.2 471.61 135.31C462.83 145.04 449.45 153.45 425.74 153.45C396.37 153.45 375.84 137.01 369.35 113.29C357.45 69.78 397.61 29.06 440.89 41.8C465.85 49.14 480.19 72.12 480.19 94.26C480.19 97.39 480.05 100.09 479.85 102.38C479.64 104.79 477.64 106.64 475.22 106.64H407.63C404.04 106.64 401.74 110.58 403.62 113.63C408.35 121.31 416.54 125.41 426.77 125.41ZM441.74 85.19C445.13 85.19 447.41 81.66 445.96 78.59C441.99 70.16 434.66 65.19 424.5 65.19C414.34 65.19 406.46 69.71 402.36 78.53C400.92 81.64 403.12 85.2 406.55 85.2H441.74V85.19Z" fill="white"/>
<path d="M499.2 0H524.91C527.32 0 529.28 1.96 529.28 4.37V146.41C529.28 148.82 527.32 150.78 524.91 150.78H499.2C496.79 150.78 494.83 148.82 494.83 146.41V4.37C494.83 1.96 496.79 0 499.2 0Z" fill="white"/>
<path d="M679.76 130.37L645.57 150.49C645.52 150.52 645.46 150.52 645.43 150.51C645.39 150.51 645.34 150.48 645.31 150.42L638.77 139.03L636.6 135.25L633.99 130.71L628.99 122.01L628.41 121L625.9 116.63L625.88 116.6C625.85 116.54 625.82 116.47 625.79 116.41C625.51 115.77 625.34 115.08 625.27 114.39C625.21 113.71 625.27 113.03 625.42 112.37L629.28 96.55C629.28 96.55 629.32 96.46 629.37 96.43L633.73 93.86C633.86 94.19 634 94.52 634.13 94.84C634.26 95.15 634.39 95.46 634.53 95.77C634.6 95.94 634.68 96.11 634.76 96.28C634.92 96.63 635.08 96.99 635.25 97.34C635.21 97.4 635.16 97.46 635.12 97.52C635.06 97.61 635 97.7 634.95 97.79C634.89 97.89 634.83 97.99 634.78 98.09C634.73 98.18 634.69 98.26 634.65 98.35C634.61 98.44 634.56 98.54 634.52 98.63C634.52 98.63 634.52 98.63 634.52 98.64C634.48 98.73 634.45 98.82 634.41 98.91C634.41 98.92 634.4 98.93 634.39 98.95C634.36 99.04 634.33 99.12 634.3 99.21C634.3 99.21 634.3 99.23 634.29 99.24C634.23 99.43 634.17 99.63 634.13 99.83C634.13 99.84 634.13 99.86 634.13 99.87C634.11 99.96 634.09 100.05 634.08 100.14V100.16C634.06 100.25 634.05 100.34 634.04 100.44C634.04 100.45 634.04 100.46 634.04 100.47C634.04 100.55 634.02 100.62 634.01 100.7C633.97 101.1 633.97 101.49 633.99 101.89C634.01 102.23 634.06 102.56 634.14 102.89C634.16 102.97 634.18 103.06 634.2 103.14C634.22 103.22 634.24 103.31 634.27 103.39C634.3 103.48 634.33 103.58 634.36 103.67C634.41 103.82 634.47 103.97 634.53 104.11C634.65 104.4 634.79 104.69 634.96 104.96C635.77 106.34 636.98 107.37 638.46 107.94C639.29 108.26 640.16 108.42 641.02 108.42C641.17 108.42 641.33 108.42 641.48 108.4C641.63 108.4 641.79 108.38 641.94 108.36C642.02 108.35 642.09 108.34 642.17 108.32C642.32 108.3 642.47 108.26 642.62 108.23C642.69 108.21 642.77 108.19 642.84 108.17C643.44 108.01 644.02 107.76 644.56 107.44C647.89 105.48 649.01 101.17 647.05 97.83C646.81 97.43 646.54 97.06 646.23 96.72C646.18 96.66 646.13 96.61 646.07 96.55C646.02 96.49 645.96 96.44 645.91 96.39C645.86 96.34 645.8 96.28 645.74 96.23C645.68 96.18 645.63 96.13 645.57 96.08C645.4 95.93 645.22 95.79 645.03 95.66C644.9 95.57 644.78 95.49 644.65 95.41C644.52 95.33 644.39 95.26 644.26 95.19C644.13 95.12 643.99 95.05 643.85 94.99C643.51 94.84 643.15 94.71 642.78 94.61C642.71 94.59 642.63 94.57 642.56 94.55C642.41 94.52 642.26 94.49 642.11 94.46C641.66 94.39 641.21 94.35 640.74 94.37C640.66 94.37 640.59 94.37 640.51 94.38C640.35 93.97 640.19 93.56 640.03 93.16C639.94 92.93 639.85 92.71 639.76 92.49C639.52 91.9 639.28 91.31 639.04 90.72L639.11 90.68L641.29 89.4C641.29 89.4 641.39 89.36 641.44 89.38L645.64 90.47C649.4 91.44 653.15 92.42 656.91 93.39L658.36 93.77C658.55 93.82 658.84 93.93 659.12 94.15C659.38 94.36 659.54 94.59 659.63 94.76L679.85 130.1C679.9 130.19 679.87 130.31 679.78 130.36L679.76 130.37Z" fill="#076EFF"/>
<path d="M628 124.72C628.19 125.05 628.38 125.39 628.58 125.72C629.29 126.96 630.42 129.01 632.21 132.55C628.99 135.39 618.83 143.6 603.56 144.46C582.71 145.64 568.95 132.17 566.79 129.97C565.9 129.37 564.72 129.46 563.97 130.18C563.17 130.95 563.06 132.24 563.75 133.17C568.98 138.42 574.16 141.51 577.9 143.32C580.21 144.44 600.3 153.81 621.18 144.55C627.28 141.84 631.66 138.34 634.39 135.81L634.96 136.79L636 138.6L636.57 139.59C626.72 147.71 614.09 152.59 600.33 152.59C565.74 152.59 538.34 121.79 544.06 86.12C547.91 62.12 566.81 43.18 590.81 39.3C625.01 33.77 654.76 58.69 657.2 91.23C656.9 91.15 656.36 91.01 656.06 90.93C652.65 90.04 649.26 89.15 645.87 88.24C645.12 87.97 644.36 87.71 643.61 87.44C642.98 87.3 642.46 87.29 642.09 87.31C641.74 87.33 641.46 87.37 641.31 87.4C640.82 87.48 640.41 87.6 640.12 87.7C639.75 86.16 639.16 84.05 638.21 81.63C637.92 80.89 634.58 72.62 628.47 66.5C621.65 59.67 610.36 54.48 598.77 55.09C578.38 56.17 559.11 75.08 559.43 96.45C559.68 113.4 572.13 124.54 574.75 126.78C575.86 127.87 577.54 127.65 578.16 126.74C578.67 126 578.52 124.77 577.64 123.95C576.54 123.07 575.05 121.77 573.46 120.03C571.56 117.95 564.71 110.22 563.67 98.59C562.42 84.69 570.29 74.67 572.55 72.02C573.79 70.56 584.18 58.72 600.41 58.76C601.89 58.76 609.35 58.88 617.48 63.25C620.16 64.69 625.59 67.69 629.57 73.55C632.36 77.65 635.09 84.13 637.28 89.3C637.32 89.39 637.49 89.79 637.72 90.34C638.12 91.3 638.74 92.8 639.46 94.65C640.23 96.62 640.39 97.12 640.95 97.98C641.35 98.58 641.74 99.04 642.02 99.34C642.09 99.41 643.27 100.61 642.88 102C642.84 102.15 642.68 102.7 642.16 103.1C641.44 103.66 640.34 103.66 639.59 103.24C638.96 102.89 638.52 101.88 637.65 99.85C637.29 99.01 637.24 98.9 637.24 98.9C637.13 98.55 636.96 98.24 636.8 97.87C636.75 97.76 636.72 97.69 636.65 97.56C636.51 97.29 636.38 97.01 636.13 96.46C635.67 95.47 635.28 94.52 635.26 94.48C635.26 94.48 634.78 93.33 634.39 92.3C634.34 92.17 634.19 91.76 634 91.23C633.97 91.14 633.95 91.08 633.94 91.07C633.73 90.49 633.27 89.3 633.1 88.86C631.82 85.67 630.3 82.77 630.3 82.77C628.56 79.45 627 76.46 624.35 73.5C620.25 68.92 615.68 66.81 613.7 65.91C607.45 63.09 602 62.94 600.32 62.93C596.98 62.92 591.52 63.42 585.69 66.39C584.23 67.13 579.22 69.83 574.86 75.44C573.92 76.64 571.59 79.82 569.85 84.52C567.82 90 567.73 94.52 567.72 95.54C567.67 100.36 568.77 103.97 569.19 105.26C570.75 109.99 573.11 113.07 574.33 114.64C577.7 118.96 581.24 121.31 583.5 122.81C586.25 124.63 588.46 125.58 589.11 125.85C589.66 126.08 590.62 126.46 591.8 126.82C595.68 128.02 599.01 128.14 600.32 128.16C601.22 128.17 605.72 128.18 611.18 126.25C617.52 124.01 621.43 120.47 622.53 119.43C623.19 118.8 623.72 118.25 624.08 117.85C624.63 118.8 625.17 119.76 625.72 120.71C626.49 122.04 627.25 123.38 628.02 124.71L628 124.72Z" fill="white"/>
</g>
<defs>
<clipPath id="clip0_283_429">
<rect width="679.86" height="153.46" fill="white"/>
</clipPath>
</defs>
</svg>
